<svg xmlns="http://www.w3.org/2000/svg" display="none">
    <symbol id="block-view" viewBox="0 0 15 15">
        <path d="M0 0H3V3H0V0Z"/>
        <path d="M6 0H9V3H6V0Z"/>
        <path d="M12 0H15V3H12V0Z"/>
        <path d="M0 6H3V9H0V6Z"/>
        <path d="M6 6H9V9H6V6Z"/>
        <path d="M12 6H15V9H12V6Z"/>
        <path d="M0 12H3V15H0V12Z"/>
        <path d="M6 12H9V15H6V12Z"/>
        <path d="M12 12H15V15H12V12Z"/>
    </symbol>

    <symbol id="list-view" viewBox="0 0 511.626 511.626">
        <g>
            <g>
                <path d="M63.953,164.453H9.135c-2.474,0-4.615,0.9-6.423,2.709C0.903,168.972,0,171.114,0,173.589v54.817
                    c0,2.473,0.903,4.619,2.712,6.424c1.809,1.803,3.949,2.712,6.423,2.712h54.818c2.474,0,4.615-0.905,6.423-2.712
                    c1.809-1.809,2.712-3.951,2.712-6.424v-54.817c0-2.475-0.904-4.617-2.712-6.427C68.568,165.356,66.427,164.453,63.953,164.453z"/>
                <path d="M63.953,383.722H9.135c-2.474,0-4.615,0.896-6.423,2.707C0.903,388.238,0,390.378,0,392.854v54.82
                    c0,2.471,0.903,4.609,2.712,6.42c1.809,1.813,3.949,2.714,6.423,2.714h54.818c2.474,0,4.615-0.903,6.423-2.714
                    c1.809-1.807,2.712-3.949,2.712-6.42v-54.82c0-2.477-0.904-4.616-2.712-6.426C68.568,384.625,66.427,383.722,63.953,383.722z"/>
                <path d="M63.953,274.082H9.135c-2.474,0-4.615,0.91-6.423,2.714S0,280.749,0,283.22v54.815c0,2.478,0.903,4.62,2.712,6.427
                    c1.809,1.808,3.949,2.707,6.423,2.707h54.818c2.474,0,4.615-0.896,6.423-2.707c1.809-1.807,2.712-3.949,2.712-6.427V283.22
                    c0-2.471-0.904-4.613-2.712-6.424C68.568,274.989,66.427,274.082,63.953,274.082z"/>
                <path d="M63.953,54.817H9.135c-2.474,0-4.615,0.903-6.423,2.712S0,61.479,0,63.953v54.817c0,2.475,0.903,4.615,2.712,6.424
                    s3.949,2.712,6.423,2.712h54.818c2.474,0,4.615-0.9,6.423-2.712c1.809-1.809,2.712-3.949,2.712-6.424V63.953
                    c0-2.475-0.904-4.615-2.712-6.424C68.568,55.725,66.427,54.817,63.953,54.817z"/>
                <path d="M502.49,383.722H118.771c-2.474,0-4.615,0.896-6.423,2.707c-1.809,1.81-2.712,3.949-2.712,6.426v54.82
                    c0,2.471,0.903,4.609,2.712,6.42c1.809,1.813,3.946,2.714,6.423,2.714H502.49c2.478,0,4.616-0.903,6.427-2.714
                    c1.81-1.811,2.71-3.949,2.71-6.42v-54.82c0-2.477-0.903-4.616-2.71-6.426C507.106,384.625,504.967,383.722,502.49,383.722z"/>
                <path d="M502.49,274.082H118.771c-2.474,0-4.615,0.91-6.423,2.714s-2.712,3.953-2.712,6.424v54.815
                    c0,2.478,0.903,4.62,2.712,6.427c1.809,1.808,3.946,2.707,6.423,2.707H502.49c2.478,0,4.616-0.896,6.427-2.707
                    c1.81-1.807,2.71-3.949,2.71-6.427V283.22c0-2.471-0.903-4.613-2.71-6.424C507.106,274.992,504.967,274.082,502.49,274.082z"/>
                <path d="M508.917,57.529c-1.811-1.805-3.949-2.712-6.427-2.712H118.771c-2.474,0-4.615,0.903-6.423,2.712
                    s-2.712,3.949-2.712,6.424v54.817c0,2.475,0.903,4.615,2.712,6.424s3.946,2.712,6.423,2.712H502.49c2.478,0,4.616-0.9,6.427-2.712
                    c1.81-1.809,2.71-3.949,2.71-6.424V63.953C511.626,61.479,510.723,59.338,508.917,57.529z"/>
                <path d="M502.49,164.453H118.771c-2.474,0-4.615,0.9-6.423,2.709c-1.809,1.81-2.712,3.952-2.712,6.427v54.817
                    c0,2.473,0.903,4.615,2.712,6.424c1.809,1.803,3.946,2.712,6.423,2.712H502.49c2.478,0,4.616-0.905,6.427-2.712
                    c1.81-1.809,2.71-3.951,2.71-6.424v-54.817c0-2.475-0.903-4.617-2.71-6.427C507.106,165.356,504.967,164.453,502.49,164.453z"/>
            </g>
        </g>
    </symbol>

    <symbol id="whatsapp" viewBox="0 0 512 512">
        <path style="fill:#4CAF50;" d="M256.064,0h-0.128l0,0C114.784,0,0,114.816,0,256c0,56,18.048,107.904,48.736,150.048l-31.904,95.104
	l98.4-31.456C155.712,496.512,204,512,256.064,512C397.216,512,512,397.152,512,256S397.216,0,256.064,0z"/>
        <path style="fill:#FAFAFA;" d="M405.024,361.504c-6.176,17.44-30.688,31.904-50.24,36.128c-13.376,2.848-30.848,5.12-89.664-19.264
	C189.888,347.2,141.44,270.752,137.664,265.792c-3.616-4.96-30.4-40.48-30.4-77.216s18.656-54.624,26.176-62.304
	c6.176-6.304,16.384-9.184,26.176-9.184c3.168,0,6.016,0.16,8.576,0.288c7.52,0.32,11.296,0.768,16.256,12.64
	c6.176,14.88,21.216,51.616,23.008,55.392c1.824,3.776,3.648,8.896,1.088,13.856c-2.4,5.12-4.512,7.392-8.288,11.744
	c-3.776,4.352-7.36,7.68-11.136,12.352c-3.456,4.064-7.36,8.416-3.008,15.936c4.352,7.36,19.392,31.904,41.536,51.616
	c28.576,25.44,51.744,33.568,60.032,37.024c6.176,2.56,13.536,1.952,18.048-2.848c5.728-6.176,12.8-16.416,20-26.496
	c5.12-7.232,11.584-8.128,18.368-5.568c6.912,2.4,43.488,20.48,51.008,24.224c7.52,3.776,12.48,5.568,14.304,8.736
	C411.2,329.152,411.2,344.032,405.024,361.504z"/>
    </symbol>


    <symbol id="chat" viewBox="0 0 512.001 512.001">
        <g>
            <g>
                <g>
                    <path d="M468.53,306.575c-4.14-10.239-15.798-15.188-26.038-11.046c-10.241,4.14-15.187,15.797-11.047,26.038L455,379.833
				l-69.958-30.839c-5.064-2.232-10.827-2.267-15.917-0.095c-23.908,10.201-49.52,15.373-76.124,15.373
				c-107.073,0-179-83.835-179-162.136c0-89.402,80.299-162.136,179-162.136s179,72.734,179,162.136
				c0,6.975-0.65,15.327-1.781,22.913c-1.63,10.925,5.905,21.102,16.83,22.732c10.926,1.634,21.103-5.905,22.732-16.83
				c1.431-9.59,2.219-19.824,2.219-28.815c0-54.33-23.006-105.308-64.783-143.543C405.936,20.809,351.167,0,293.001,0
				S180.067,20.809,138.784,58.592c-37.332,34.168-59.66,78.516-63.991,126.335C27.836,216.023,0.001,265.852,0.001,319.525
				c0,33.528,10.563,65.34,30.67,92.717L1.459,484.504c-3.051,7.546-1.224,16.189,4.621,21.855
				c3.809,3.694,8.828,5.642,13.925,5.642c2.723-0.001,5.469-0.556,8.063-1.7l84.229-37.13c21.188,7.887,43.585,11.88,66.703,11.88
				c0.5,0,0.991-0.039,1.482-0.075c33.437-0.253,65.944-9.048,94.098-25.507c25.218-14.744,45.962-34.998,60.505-58.917
				c14.199-2.55,28.077-6.402,41.547-11.551l107.301,47.3c2.595,1.143,5.34,1.7,8.063,1.7c5.097-0.001,10.117-1.949,13.926-5.642
				c5.845-5.666,7.672-14.308,4.621-21.855L468.53,306.575z M179.002,445c-0.273,0-0.539,0.03-0.81,0.041
				c-20.422-0.104-40.078-4.118-58.435-11.95c-5.089-2.173-10.852-2.138-15.916,0.095l-46.837,20.646l15.109-37.375
				c2.793-6.909,1.512-14.799-3.322-20.47c-18.835-22.097-28.79-48.536-28.79-76.462c0-31.961,13.445-62.244,36.969-85.206
				c7.324,39.925,27.989,78.117,59.162,108.119c38.791,37.333,90.101,58.961,145.506,61.565
				C255.626,429.608,218.402,445,179.002,445z"/>
                    <circle cx="292.001" cy="203" r="20"/>
                    <circle cx="372.001" cy="203" r="20"/>
                    <circle cx="212.001" cy="203" r="20"/>
                </g>
            </g>
        </g>
    </symbol>

    <symbol id="help1" viewBox="0 0 496 496">
        <path d="m456 112h-8v-112h-400v112h-8c-22.054688 0-40 17.945312-40 40v256c0 22.054688 17.945312 40 40 40h104v32h-32v16h272v-16h-32v-32h104c22.054688 0 40-17.945312 40-40v-256c0-22.054688-17.945312-40-40-40zm-392-32h368v256h-368zm368-64v48h-368v-48zm-392 112h8v224h400v-224h8c13.230469 0 24 10.769531 24 24v216h-464v-216c0-13.230469 10.769531-24 24-24zm296 352h-176v-32h176zm120-48h-416c-13.230469 0-24-10.769531-24-24v-24h464v24c0 13.230469-10.769531 24-24 24zm0 0"/>
        <path d="m48 400h16v16h-16zm0 0"/>
        <path d="m80 400h16v16h-16zm0 0"/>
        <path d="m112 400h16v16h-16zm0 0"/>
        <path d="m80 32h16v16h-16zm0 0"/>
        <path d="m112 32h16v16h-16zm0 0"/>
        <path d="m144 32h16v16h-16zm0 0"/>
        <path d="m210.992188 193.671875-26.992188-7.703125v-2.128906c9.96875-7.511719 16-19.328125 16-31.832032v-14.335937c0-21.503906-16.007812-39.726563-36.449219-41.503906-11.199219-.96875-22.34375 2.800781-30.574219 10.351562-8.25 7.550781-12.976562 18.304688-12.976562 29.480469v16c0 12.503906 6.03125 24.328125 16 31.832031v2.128907l-26.992188 7.710937c-17.078124 4.886719-29.007812 20.703125-29.007812 38.464844v23.863281h160v-23.863281c0-17.761719-11.929688-33.578125-29.007812-38.464844zm13.007812 46.328125h-128v-7.863281c0-10.664063 7.160156-20.152344 17.40625-23.082031l38.59375-11.023438v-23.070312l-3.976562-2.3125c-7.527344-4.382813-12.023438-12.105469-12.023438-20.648438v-16c0-6.703125 2.839844-13.160156 7.792969-17.695312 5.007812-4.601563 11.519531-6.824219 18.382812-6.207032 12.230469 1.0625 21.824219 12.285156 21.824219 25.566406v14.335938c0 8.542969-4.496094 16.265625-12.023438 20.648438l-3.976562 2.3125v23.070312l38.59375 11.023438c10.246094 2.9375 17.40625 12.425781 17.40625 23.082031zm0 0"/>
        <path d="m80 272h160v16h-160zm0 0"/>
        <path d="m80 304h160v16h-160zm0 0"/>
        <path d="m256 320h160v-128h-160zm16-112h128v96h-128zm0 0"/>
        <path d="m256 96h160v16h-160zm0 0"/>
        <path d="m256 128h160v16h-160zm0 0"/>
        <path d="m256 160h112v16h-112zm0 0"/>
    </symbol>

    <symbol id="help2" viewBox="0 0 512 512">
        <g>
            <g>
                <path d="M480,6H32A26.03,26.03,0,0,0,6,32V384a26.03,26.03,0,0,0,26,26H208.671l-6.806,54.431a238.492,238.492,0,0,0-47.412,23.249A10,10,0,0,0,160,506H352a10,10,0,0,0,5.547-18.32,238.492,238.492,0,0,0-47.412-23.249L303.329,410H480a26.03,26.03,0,0,0,26-26V32A26.03,26.03,0,0,0,480,6ZM32,26H480a6.006,6.006,0,0,1,6,6V310H26V32A6.006,6.006,0,0,1,32,26ZM208,486h-6.526c15.893-6.393,35.309-12,54.526-12,19.148,0,38.556,5.607,54.459,12H208ZM289.2,458.16a134.521,134.521,0,0,0-66.39,0L228.827,410h54.346ZM486,384a6.006,6.006,0,0,1-6,6H32a6.006,6.006,0,0,1-6-6V330H486Z"/>
                <path d="M240,370h32a10,10,0,0,0,0-20H240a10,10,0,0,0,0,20Z"/>
                <path d="M104,74h24.792l45.721,137.162A9.969,9.969,0,0,0,176,214h0a26.036,26.036,0,1,0,13.831,4h83.462c-.188,1.976-.293,3.976-.293,6a63,63,0,1,0,63-63c-1.987,0-3.949.1-5.89.284l15.377-46.121A10,10,0,0,0,336,102H208a10,10,0,0,0,0,20H322.125l-9.348,28.039c-.257-.02-.515-.039-.777-.039H224a10,10,0,0,0,0,20h79.589a63.409,63.409,0,0,0-24.951,28h-87.43L145.487,60.838A10,10,0,0,0,136,54H104a10,10,0,0,0,0,20Zm72,172a6,6,0,1,1,6-6A6.006,6.006,0,0,1,176,246Zm203-22a43,43,0,1,1-43-43A43.049,43.049,0,0,1,379,224Z"/>
                <path d="M315.528,232.944l16,8a10,10,0,0,0,12.792-3.4l16-24a10,10,0,0,0-16.64-11.094l-11.1,16.655-8.1-4.052a10,10,0,0,0-8.944,17.888Z"/>
            </g>
        </g>
    </symbol>

    <symbol id="help3" viewBox="0 0 512 512">
        <g>
            <g>
                <path d="M172.55,391.902c-0.13-0.64-0.32-1.27-0.57-1.88c-0.25-0.6-0.56-1.18-0.92-1.72c-0.36-0.55-0.78-1.06-1.24-1.52
			c-0.46-0.46-0.97-0.88-1.52-1.24c-0.54-0.36-1.12-0.67-1.73-0.92c-0.6-0.25-1.23-0.45-1.87-0.57c-1.29-0.26-2.62-0.26-3.9,0
			c-0.64,0.12-1.27,0.32-1.88,0.57c-0.6,0.25-1.18,0.56-1.72,0.92c-0.55,0.36-1.06,0.78-1.52,1.24c-0.46,0.46-0.88,0.97-1.24,1.52
			c-0.37,0.54-0.67,1.12-0.92,1.72c-0.25,0.61-0.45,1.24-0.57,1.88c-0.13,0.64-0.2,1.3-0.2,1.95c0,0.65,0.07,1.31,0.2,1.95
			c0.12,0.64,0.32,1.27,0.57,1.87c0.25,0.61,0.55,1.19,0.92,1.73c0.36,0.55,0.78,1.06,1.24,1.52c0.46,0.46,0.97,0.88,1.52,1.24
			c0.54,0.361,1.12,0.671,1.72,0.921c0.61,0.25,1.24,0.45,1.88,0.57c0.64,0.13,1.3,0.2,1.95,0.2c0.65,0,1.31-0.07,1.95-0.2
			c0.64-0.12,1.27-0.32,1.87-0.57c0.61-0.25,1.19-0.561,1.73-0.921c0.55-0.36,1.06-0.78,1.52-1.24c0.46-0.46,0.88-0.97,1.24-1.52
			c0.36-0.54,0.67-1.12,0.92-1.73c0.25-0.6,0.44-1.23,0.57-1.87s0.2-1.3,0.2-1.95S172.68,392.542,172.55,391.902z"/>
            </g>
        </g>
        <g>
            <g>
                <path d="M459.993,394.982c-0.039-0.1-0.079-0.199-0.121-0.297c-9.204-21.537-30.79-29.497-56.336-20.772l-69.668,19.266
			c-4.028-12.198-14.075-22.578-28.281-27.85c-0.088-0.032-0.176-0.064-0.265-0.094l-76.581-25.992
			c-6.374-8.239-26.34-29.321-63.723-29.321c-26.125,0-49.236,17.922-62.458,37.457H10c-5.523,0-10,4.477-10,10v126.077
			c0,5.523,4.477,10,10,10h59.457c5.523,0,10-4.477,10-10v-8.634h27.883c5.523,0,10-4.477,10-10v-2.878
			c16.254,1.418,21.6,4.501,36.528,13.109c11.48,6.62,28.831,16.625,60.077,30.674c0.145,0.065,0.292,0.127,0.439,0.185
			c5.997,2.359,17.72,6.065,32.173,6.065c10.06,0,21.445-1.797,33.131-7.094l153.991-55.136c0.274-0.098,0.544-0.208,0.808-0.33
			C449.204,442.646,471.135,423.563,459.993,394.982z M59.457,473.455H20V367.378h39.457V473.455z M97.34,454.821H79.457v-87.443
			H97.34V454.821z M426.496,431.074l-153.922,55.111c-0.135,0.048-0.318,0.12-0.451,0.174c-0.135,0.055-0.27,0.113-0.403,0.174
			c-21.437,9.852-41.814,3.954-49.8,0.849c-30.182-13.581-46.291-22.87-58.061-29.657c-16.364-9.436-24.249-13.984-46.519-15.823
			V361.36c9.479-15.536,27.861-31.439,47.679-31.439c33.986,0,48.387,22.105,48.953,22.997c1.221,1.986,3.098,3.483,5.305,4.232
			l79.475,26.974c12.693,4.764,19.401,15.634,16.318,26.474c-1.423,5.006-4.711,9.158-9.257,11.691
			c-4.507,2.511-9.717,3.132-14.683,1.758l-89.593-28.392c-5.268-1.669-10.886,1.247-12.554,6.512
			c-1.669,5.265,1.247,10.885,6.512,12.554l89.749,28.441c0.095,0.03,0.19,0.059,0.286,0.086c3.583,1.019,7.231,1.523,10.857,1.523
			c6.638,0,13.203-1.691,19.161-5.011c9.213-5.133,15.875-13.547,18.759-23.692c0.23-0.81,0.434-1.62,0.611-2.43l75.083-20.8
			c10.844-3.704,25.079-5.039,31.417,9.558C447.978,419.533,430.928,428.96,426.496,431.074z"/>
            </g>
        </g>
        <g>
            <g>
                <path d="M359.06,131.543c-0.13-0.64-0.32-1.27-0.58-1.88c-0.25-0.6-0.55-1.18-0.92-1.72c-0.36-0.55-0.78-1.06-1.24-1.52
			c-0.46-0.46-0.97-0.88-1.52-1.24c-0.54-0.36-1.12-0.67-1.72-0.92c-0.61-0.25-1.24-0.45-1.87-0.57c-1.29-0.26-2.62-0.26-3.91,0
			c-0.64,0.12-1.27,0.32-1.87,0.57c-0.61,0.25-1.19,0.56-1.73,0.92c-0.55,0.36-1.06,0.78-1.52,1.24c-0.46,0.46-0.88,0.97-1.24,1.52
			c-0.36,0.54-0.67,1.12-0.92,1.72c-0.25,0.61-0.45,1.24-0.57,1.88c-0.13,0.64-0.2,1.3-0.2,1.95c0,0.65,0.07,1.31,0.2,1.95
			c0.12,0.64,0.32,1.27,0.57,1.87c0.25,0.61,0.56,1.19,0.92,1.73c0.36,0.55,0.78,1.06,1.24,1.52c0.46,0.46,0.97,0.88,1.52,1.24
			c0.54,0.36,1.12,0.67,1.73,0.92c0.6,0.25,1.23,0.44,1.87,0.57s1.3,0.2,1.95,0.2c0.65,0,1.31-0.07,1.96-0.2
			c0.63-0.13,1.26-0.32,1.87-0.57c0.6-0.25,1.18-0.56,1.72-0.92c0.55-0.36,1.06-0.78,1.52-1.24c0.46-0.46,0.88-0.97,1.24-1.52
			c0.37-0.54,0.67-1.12,0.92-1.73c0.26-0.6,0.45-1.23,0.58-1.87c0.13-0.64,0.19-1.3,0.19-1.95
			C359.25,132.843,359.19,132.183,359.06,131.543z"/>
            </g>
        </g>
        <g>
            <g>
                <path d="M502,33.891h-59.457c-5.523,0-10,4.477-10,10v8.634H404.66c-5.523,0-10,4.477-10,10v2.878
			c-16.254-1.419-21.6-4.501-36.527-13.109c-11.48-6.62-28.831-16.625-60.078-30.674c-0.145-0.066-0.291-0.127-0.44-0.185
			c-10.171-4.002-36.828-11.876-65.299,1.027l-40.24,14.408L158.157,2.952c-3.905-3.905-10.237-3.905-14.142,0L32.657,114.309
			c-3.602,3.603-4.293,9.85,0,14.143l190.287,190.287c3.045,3.046,10.175,3.967,14.143,0l101.665-101.664
			c2.643,0.228,5.386,0.351,8.229,0.351c26.126,0,49.236-17.922,62.457-37.456H502c5.523,0,10-4.477,10-10V43.891
			C512,38.368,507.523,33.891,502,33.891z M151.085,24.165l22.792,22.792c-6.775,4.19-14.608,6.432-22.792,6.432
			c-8.185,0-16.017-2.241-22.792-6.432L151.085,24.165z M76.663,144.173L53.871,121.38l22.792-22.792
			c4.19,6.775,6.432,14.608,6.432,22.792C83.095,129.564,80.854,137.397,76.663,144.173z M230.016,297.525l-22.788-22.788
			c13.913-8.586,31.661-8.586,45.575,0L230.016,297.525z M267.211,260.331c-22.098-16.03-52.292-16.03-74.39,0L91.07,158.579
			c7.809-10.74,12.025-23.641,12.025-37.199c0-13.559-4.215-26.459-12.025-37.199l22.817-22.816
			c10.74,7.809,23.64,12.025,37.199,12.025c13.559,0,26.459-4.216,37.199-12.025l21.629,21.629
			c-4.667,0.689-9.218,2.227-13.462,4.592c-7.168,3.994-12.792,9.975-16.294,17.211c-11.28,2.089-21.723,7.55-29.915,15.741
			c-22.225,22.226-22.225,58.389,0.001,80.615c11.112,11.112,25.709,16.669,40.307,16.669c14.597,0,29.195-5.556,40.308-16.669
			c7.23-7.23,12.295-16.116,14.832-25.8l33.764,11.459c-3.801,17.608,0.092,36.132,10.593,50.682L267.211,260.331z M206.413,162.018
			c0.088,0.032,0.176,0.064,0.265,0.094l19.996,6.787c-1.51,6.815-4.927,13.081-9.957,18.112c-14.428,14.426-37.904,14.428-52.33,0
			c-14.428-14.427-14.428-37.902,0-52.33c3.48-3.482,7.587-6.203,12.062-8.048C178.295,141.995,189.356,155.688,206.413,162.018z
			 M304.457,223.084c-3.86-6.29-6.044-13.469-6.389-20.796c4.79,3.463,10.644,6.856,17.636,9.549L304.457,223.084z M394.659,165.983
			c-9.478,15.538-27.86,31.441-47.678,31.441c-3.708,0-7.183-0.264-10.432-0.734c-0.013-0.002-0.026-0.004-0.039-0.006
			c-21.596-3.137-33.213-15.411-37.042-20.271c-0.204-0.3-1.073-1.437-1.202-1.626c-1.165-2.082-3.075-3.756-5.511-4.583
			l-79.508-26.985c-12.688-4.762-19.395-15.627-16.321-26.463c0.002-0.007,0.004-0.014,0.006-0.021
			c0.003-0.008,0.005-0.017,0.007-0.025c1.429-4.99,4.711-9.129,9.247-11.656c4.506-2.511,9.715-3.134,14.683-1.757l89.593,28.391
			c5.266,1.671,10.886-1.247,12.554-6.512c1.668-5.265-1.247-10.885-6.512-12.554l-71.255-22.58l-0.622-0.622
			c-0.006-0.006-0.012-0.013-0.019-0.019l-36.89-36.89l31.708-11.354c0.107-0.039,0.239-0.088,0.345-0.131
			c0.027-0.011,0.079-0.031,0.105-0.042c0.136-0.055,0.27-0.113,0.403-0.174c21.436-9.852,41.812-3.955,49.799-0.849
			c30.183,13.581,46.293,22.87,58.063,29.657c16.364,9.437,24.249,13.984,46.518,15.823V165.983z M432.543,159.968H414.66V72.525
			h17.883V159.968z M492,159.968h-39.457V53.891H492V159.968z"/>
            </g>
        </g>

    </symbol>


    <symbol id="help4" viewBox="0 0 512 512">
        <g>
            <g>
                <path d="M476.158,231.363l-13.259-53.035c3.625-0.77,6.345-3.986,6.345-7.839v-8.551c0-18.566-15.105-33.67-33.67-33.67h-60.392
			V110.63c0-9.136-7.432-16.568-16.568-16.568H50.772c-9.136,0-16.568,7.432-16.568,16.568V256c0,4.427,3.589,8.017,8.017,8.017
			c4.427,0,8.017-3.589,8.017-8.017V110.63c0-0.295,0.239-0.534,0.534-0.534h307.841c0.295,0,0.534,0.239,0.534,0.534v145.372
			c0,4.427,3.589,8.017,8.017,8.017c4.427,0,8.017-3.589,8.017-8.017v-9.088h94.569c0.008,0,0.014,0.002,0.021,0.002
			c0.008,0,0.015-0.001,0.022-0.001c11.637,0.008,21.518,7.646,24.912,18.171h-24.928c-4.427,0-8.017,3.589-8.017,8.017v17.102
			c0,13.851,11.268,25.119,25.119,25.119h9.086v35.273h-20.962c-6.886-19.883-25.787-34.205-47.982-34.205
			s-41.097,14.322-47.982,34.205h-3.86v-60.393c0-4.427-3.589-8.017-8.017-8.017c-4.427,0-8.017,3.589-8.017,8.017v60.391H192.817
			c-6.886-19.883-25.787-34.205-47.982-34.205s-41.097,14.322-47.982,34.205H50.772c-0.295,0-0.534-0.239-0.534-0.534v-17.637
			h34.739c4.427,0,8.017-3.589,8.017-8.017s-3.589-8.017-8.017-8.017H8.017c-4.427,0-8.017,3.589-8.017,8.017
			s3.589,8.017,8.017,8.017h26.188v17.637c0,9.136,7.432,16.568,16.568,16.568h43.304c-0.002,0.178-0.014,0.355-0.014,0.534
			c0,27.996,22.777,50.772,50.772,50.772s50.772-22.776,50.772-50.772c0-0.18-0.012-0.356-0.014-0.534h180.67
			c-0.002,0.178-0.014,0.355-0.014,0.534c0,27.996,22.777,50.772,50.772,50.772c27.995,0,50.772-22.776,50.772-50.772
			c0-0.18-0.012-0.356-0.014-0.534h26.203c4.427,0,8.017-3.589,8.017-8.017v-85.511C512,251.989,496.423,234.448,476.158,231.363z
			 M375.182,144.301h60.392c9.725,0,17.637,7.912,17.637,17.637v0.534h-78.029V144.301z M375.182,230.881v-52.376h71.235
			l13.094,52.376H375.182z M144.835,401.904c-19.155,0-34.739-15.583-34.739-34.739s15.584-34.739,34.739-34.739
			c19.155,0,34.739,15.583,34.739,34.739S163.99,401.904,144.835,401.904z M427.023,401.904c-19.155,0-34.739-15.583-34.739-34.739
			s15.584-34.739,34.739-34.739c19.155,0,34.739,15.583,34.739,34.739S446.178,401.904,427.023,401.904z M495.967,299.29h-9.086
			c-5.01,0-9.086-4.076-9.086-9.086v-9.086h18.171V299.29z"/>
            </g>
        </g>
        <g>
            <g>
                <path d="M144.835,350.597c-9.136,0-16.568,7.432-16.568,16.568c0,9.136,7.432,16.568,16.568,16.568
			c9.136,0,16.568-7.432,16.568-16.568C161.403,358.029,153.971,350.597,144.835,350.597z"/>
            </g>
        </g>
        <g>
            <g>
                <path d="M427.023,350.597c-9.136,0-16.568,7.432-16.568,16.568c0,9.136,7.432,16.568,16.568,16.568
			c9.136,0,16.568-7.432,16.568-16.568C443.591,358.029,436.159,350.597,427.023,350.597z"/>
            </g>
        </g>
        <g>
            <g>
                <path d="M332.96,316.393H213.244c-4.427,0-8.017,3.589-8.017,8.017s3.589,8.017,8.017,8.017H332.96
			c4.427,0,8.017-3.589,8.017-8.017S337.388,316.393,332.96,316.393z"/>
            </g>
        </g>
        <g>
            <g>
                <path d="M127.733,282.188H25.119c-4.427,0-8.017,3.589-8.017,8.017s3.589,8.017,8.017,8.017h102.614
			c4.427,0,8.017-3.589,8.017-8.017S132.16,282.188,127.733,282.188z"/>
            </g>
        </g>
        <g>
            <g>
                <path d="M278.771,173.37c-3.13-3.13-8.207-3.13-11.337,0.001l-71.292,71.291l-37.087-37.087c-3.131-3.131-8.207-3.131-11.337,0
			c-3.131,3.131-3.131,8.206,0,11.337l42.756,42.756c1.565,1.566,3.617,2.348,5.668,2.348s4.104-0.782,5.668-2.348l76.96-76.96
			C281.901,181.576,281.901,176.501,278.771,173.37z"/>
            </g>
        </g>
    </symbol>

    <symbol id="help5" viewBox="0 0 512 512">
        <g>
            <g>
                <path d="m111.746 358.343c-4.234-3.547-10.541-2.989-14.087 1.245l-25.005 29.854-9.037-7.657c-4.214-3.57-10.523-3.048-14.094 1.166-3.57 4.214-3.048 10.524 1.166 14.094l16.71 14.157c1.813 1.536 4.106 2.37 6.464 2.37.284 0 .568-.012.853-.037 2.652-.227 5.105-1.501 6.814-3.542l31.463-37.563c3.544-4.234 2.986-10.54-1.247-14.087z"/>
                <path d="m490.822 204.11h-14.372c-12.038-.556-21.719-10.809-32.92-22.673-7.485-7.927-15.499-16.415-25.153-22.706v-85.484c0-15.057-12.25-27.307-27.306-27.307h-326.174c-15.057 0-27.306 12.25-27.306 27.307v69.368c0 5.523 4.477 10 10 10s10-4.477 10-10v-69.368c0-3.96 3.346-7.307 7.306-7.307h110.659v88.477c0 3.635 1.973 6.984 5.152 8.747 1.51.837 3.18 1.253 4.847 1.253 1.843 0 3.682-.509 5.301-1.52l37.14-23.213 37.113 23.212c3.083 1.927 6.968 2.031 10.149.269s5.154-5.111 5.154-8.747v-88.478h110.66c3.96 0 7.306 3.346 7.306 7.307v77.006c-3.253-.681-6.668-1.09-10.279-1.154-.059-.001-.117-.001-.176-.001h-25.334-19.677-11.333c-.052 0-.103 0-.155.001-12.055.187-18.249 5.652-21.323 10.203-4.771 7.064-5.213 16.631-1.249 26.928.923 2.404 2.048 4.678 3.344 6.815h-75.829c-16.292 0-29.547 13.255-29.547 29.547 0 3.35.56 6.572 1.589 9.576h-2.654c-16.292 0-29.547 13.255-29.547 29.548s13.255 29.548 29.547 29.548h2.647c-1.025 2.996-1.583 6.208-1.583 9.548 0 15.783 12.414 28.717 27.981 29.535-1.035 3.008-1.597 6.233-1.597 9.589 0 16.293 13.255 29.548 29.547 29.548h123.894c4.267 0 8.151-.522 11.731-1.416v31.334c0 3.976-3.346 7.334-7.306 7.334h-231.63c1.962-6.986 3.034-14.341 3.034-21.946 0-44.796-36.443-81.24-81.238-81.24-8.223 0-16.161 1.238-23.647 3.521v-74.549c0-5.523-4.477-10-10-10s-10 4.477-10 10v83.803c-22.577 14.448-37.588 39.729-37.588 68.466 0 44.812 36.443 81.269 81.238 81.269 29.463 0 55.31-15.775 69.554-39.323h240.28c15.056 0 27.306-12.262 27.306-27.334v-41.173c2.208-1.578 4.319-3.197 6.366-4.775 8.831-6.805 16.457-12.682 28.601-12.682h37.478c11.677 0 21.178-9.488 21.178-21.15v-94.334c-.001-11.679-9.501-21.179-21.179-21.179zm-230.41-67.742-27.111-16.957c-3.243-2.027-7.358-2.028-10.603-.001l-27.142 16.964v-70.434h64.856zm-179.174 309.692c-33.767 0-61.238-27.485-61.238-61.269 0-33.768 27.471-61.24 61.238-61.24s61.238 27.472 61.238 61.24c0 33.784-27.471 61.269-61.238 61.269zm410.762-126.437c0 .613-.55 1.15-1.178 1.15h-37.478c-18.957 0-30.566 8.946-40.809 16.84-8.607 6.633-15.405 11.872-25.89 11.872h-123.893c-5.264 0-9.547-4.283-9.547-9.548s4.283-9.548 9.547-9.548h33.194c5.523 0 10-4.477 10-10s-4.477-10-10-10h-59.578c-5.265 0-9.547-4.295-9.547-9.576 0-5.265 4.283-9.548 9.547-9.548h59.578c5.523 0 10-4.477 10-10s-4.477-10-10-10h-90.19c-5.264 0-9.547-4.283-9.547-9.548s4.283-9.548 9.547-9.548h90.19c5.523 0 10-4.477 10-10s-4.477-10-10-10h-59.578c-5.265 0-9.547-4.296-9.547-9.576 0-5.265 4.283-9.547 9.547-9.547h111.581 21.703 14.498c5.523 0 10-4.477 10-10s-4.477-10-10-10h-14.498-21.703c-9.147 0-17.164-5.489-20.428-13.991-1.902-4.942-1.384-7.76-.844-8.56.542-.802 2.495-1.349 4.987-1.396h30.925 25.242c16.863.337 28.665 12.837 41.159 26.069 13.07 13.843 26.584 28.157 46.868 28.935.127.005.255.007.383.007h14.583c.638 0 1.178.54 1.178 1.178v94.335z"/>
                <path d="m47.591 197.583c5.523 0 10-4.505 10-10.028s-4.477-10-10-10-10 4.477-10 10v.057c0 5.522 4.477 9.971 10 9.971z"/>
            </g>
        </g>
    </symbol>

    <symbol id="help6" viewBox="0 0 512.001 512.001">
        <g>
            <g>
                <path d="M413.397,154.502L267.831,73.85c-7.407-4.103-16.252-4.103-23.659,0c0,0.001,0,0.001,0,0.001L98.605,154.501
			c-7.76,4.3-12.58,12.481-12.58,21.352v160.291c0,8.871,4.82,17.053,12.58,21.352l145.567,80.652
			c3.703,2.053,7.766,3.078,11.829,3.078c4.062,0,8.126-1.026,11.83-3.078l145.566-80.651c7.76-4.3,12.58-12.481,12.58-21.352
			V175.854C425.978,166.984,421.157,158.802,413.397,154.502z M253.863,91.342c1.339-0.744,2.939-0.742,4.276,0l58.126,32.205
			l-140.19,77.673l-59.488-33.82L253.863,91.342z M246.004,416.3l-137.706-76.296c-1.404-0.776-2.276-2.255-2.276-3.859V184.395
			l64.967,36.935c0.016,0.009,0.032,0.018,0.048,0.027l74.967,42.62V416.3z M196.441,212.798l140.456-77.82l60.403,33.465
			l-141.234,78.252L196.441,212.798z M405.979,336.144c0.001,1.605-0.871,3.084-2.275,3.862l-137.706,76.295V264.052l139.981-77.557
			V336.144z"/>
            </g>
        </g>
        <g>
            <g>
                <path d="M185.824,254.478l-52.982-29.179c-3.096-1.703-6.864-1.648-9.91,0.15c-3.045,1.799-4.912,5.072-4.912,8.608v42.269
			c0,3.644,1.983,7,5.175,8.759l52.982,29.179c1.503,0.827,3.164,1.24,4.823,1.24c1.761,0,3.52-0.465,5.086-1.391
			c3.045-1.798,4.912-5.071,4.912-8.607v-42.269C190.999,259.592,189.017,256.236,185.824,254.478z M171.002,288.584l-32.984-18.165
			v-19.439l32.984,18.166V288.584z"/>
            </g>
        </g>
        <g>
            <g>
                <path d="M227.534,360.19l-26.49-14.59c-4.836-2.664-10.918-0.902-13.582,3.935c-2.664,4.837-0.902,10.917,3.935,13.582
			l26.49,14.59c1.53,0.843,3.184,1.242,4.814,1.242c3.526,0,6.945-1.87,8.768-5.177C234.133,368.935,232.372,362.854,227.534,360.19
			z"/>
            </g>
        </g>
        <g>
            <g>
                <path d="M465.259,108.542l18.448-18.448c2.859-2.86,3.714-7.16,2.168-10.896c-1.548-3.735-5.193-6.172-9.238-6.172h-49.66
			c-5.521,0-9.999,4.477-9.999,9.999v49.66c0,4.044,2.437,7.69,6.172,9.238c1.237,0.512,2.537,0.761,3.824,0.761
			c2.603,0,5.159-1.016,7.072-2.929l16.845-16.845c63.339,92.606,52.012,219.896-28.038,299.944
			c-68.85,68.849-171.091,88.406-260.47,49.82c-5.07-2.188-10.955,0.146-13.143,5.216c-2.189,5.07,0.146,10.954,5.216,13.143
			c32.223,13.91,66.603,20.968,101.324,20.968c15.435,0,30.943-1.396,46.348-4.204c51.256-9.345,97.89-33.827,134.865-70.802
			c43.767-43.768,70.181-101.843,74.378-163.526C515.372,214.647,499.021,156.357,465.259,108.542z M436.976,108.544V93.022h15.522
			L436.976,108.544z"/>
            </g>
        </g>
        <g>
            <g>
                <path d="M133.606,457.809l-0.39-0.238c-4.716-2.873-10.867-1.378-13.74,3.34c-2.872,4.716-1.377,10.867,3.34,13.74l0.39,0.238
			c1.624,0.989,3.419,1.46,5.19,1.46c3.374,0,6.666-1.707,8.55-4.799C139.816,466.833,138.322,460.682,133.606,457.809z"/>
            </g>
        </g>
        <g>
            <g>
                <path d="M390.55,38.186l-0.495-0.306c-4.703-2.895-10.861-1.429-13.756,3.275s-1.427,10.862,3.276,13.757l0.495,0.306
			c1.635,1.006,3.443,1.484,5.23,1.484c3.357,0,6.637-1.69,8.525-4.759C396.719,47.238,395.252,41.08,390.55,38.186z"/>
            </g>
        </g>
        <g>
            <g>
                <path d="M356.985,20.726C310.491,0.787,259.517-4.907,209.577,4.257c-51.139,9.386-97.671,33.849-134.57,70.748
			C31.239,118.773,4.825,176.848,0.629,238.531c-3.999,58.82,12.352,117.111,46.114,164.926l-18.448,18.448
			c-2.859,2.86-3.714,7.16-2.168,10.896c1.548,3.735,5.193,6.172,9.238,6.172h49.66c5.521,0,9.999-4.477,9.999-9.999v-49.66
			c0.001-4.044-2.436-7.69-6.171-9.238c-3.737-1.546-8.038-0.691-10.897,2.168L61.11,389.09
			C-2.23,296.484,9.098,169.194,89.147,89.145c68.672-68.673,170.71-88.317,259.956-50.041c5.074,2.177,10.953-0.174,13.13-5.248
			C364.41,28.782,362.061,22.903,356.985,20.726z M75.025,403.455v15.522H59.504L75.025,403.455z"/>
            </g>
        </g>

    </symbol>

    <symbol id="phone" viewBox="0 0 31.685 31.685">
        <g>
            <path d="M22.507,0H9.175C7.9,0,6.87,1.034,6.87,2.309v27.07c0,1.271,1.03,2.306,2.305,2.306h13.332
		c1.273,0,2.307-1.034,2.307-2.306V2.309C24.813,1.034,23.78,0,22.507,0z M23.085,25.672H8.599V3.895h14.486V25.672z M18.932,2.343
		h-6.181V1.669h6.182L18.932,2.343L18.932,2.343z M21.577,2.035c0,0.326-0.266,0.59-0.591,0.59c-0.326,0-0.591-0.265-0.591-0.59
		s0.265-0.59,0.591-0.59C21.312,1.444,21.577,1.709,21.577,2.035z M18.655,29.225h-5.629v-1.732h5.629V29.225z"/>

        </g>
    </symbol>

    <symbol id="about1" viewBox="0 0 512.00061 512">
        <path d="m412 136c0 5.519531 4.480469 10 10 10s10-4.480469 10-10-4.480469-10-10-10-10 4.480469-10 10zm0 0"/>
        <path d="m452 256c0 12.808594-1.285156 25.59375-3.816406 38-1.105469 5.410156 2.386718 10.691406 7.796875 11.796875.675781.140625 1.347656.207031 2.011719.207031 4.652343 0 8.820312-3.269531 9.789062-8.003906 2.800781-13.722656 4.21875-27.851562 4.21875-42 0-31.488281-6.828125-61.789062-20.300781-90.0625-2.375-4.984375-8.339844-7.101562-13.328125-4.726562-4.988282 2.375-7.101563 8.34375-4.726563 13.332031 12.179688 25.5625 18.355469 52.96875 18.355469 81.457031zm0 0"/>
        <path d="m306 346h-10v-130c0-5.523438-4.476562-10-10-10h-80c-5.523438 0-10 4.476562-10 10v40c0 5.523438 4.476562 10 10 10h10v80h-10c-5.523438 0-10 4.476562-10 10v40c0 5.523438 4.476562 10 10 10h100c5.523438 0 10-4.476562 10-10v-40c0-5.523438-4.476562-10-10-10zm-10 40h-80v-20h10c5.523438 0 10-4.476562 10-10v-100c0-5.523438-4.476562-10-10-10h-10v-20h60v130c0 5.523438 4.480469 10 10 10h10zm0 0"/>
        <path d="m256 186c22.054688 0 40-17.945312 40-40s-17.945312-40-40-40-40 17.945312-40 40 17.945312 40 40 40zm0-60c11.027344 0 20 8.972656 20 20s-8.972656 20-20 20-20-8.972656-20-20 8.972656-20 20-20zm0 0"/>
        <path d="m256 0c-137.976562 0-256 117.800781-256 256 0 47.207031 13.527344 97.410156 36.335938 135.382812l-35.824219 107.457032c-1.195313 3.589844-.261719 7.554687 2.417969 10.230468 2.691406 2.691407 6.660156 3.609376 10.234374 2.414063l107.457032-35.820313c37.96875 22.8125 88.171875 36.335938 135.378906 36.335938 138.011719 0 256-117.816406 256-256 0-138.011719-117.8125-256-256-256zm0 492c-45.285156 0-93.417969-13.363281-128.757812-35.746094-2.503907-1.585937-5.625-2.003906-8.515626-1.039062l-92.914062 30.972656 30.972656-92.914062c.953125-2.851563.570313-5.976563-1.039062-8.515626-22.382813-35.335937-35.746094-83.472656-35.746094-128.757812 0-127.925781 108.074219-236 236-236s236 108.074219 236 236-108.074219 236-236 236zm0 0"/>
    </symbol>

    <symbol id="about2" viewBox="0 0 511.756 511.756">
        <g>
            <path d="m159.283 0c-4.143 0-7.5 3.358-7.5 7.5v105.003h-19.825v-105.003c0-4.142-3.357-7.5-7.5-7.5s-7.5 3.358-7.5 7.5v105.003h-19.383v-105.003c0-4.142-3.357-7.5-7.5-7.5s-7.5 3.358-7.5 7.5v105.003h-19.864v-105.003c0-4.142-3.357-7.5-7.5-7.5s-7.5 3.358-7.5 7.5v154.408c0 15.952 8.596 30.792 22.432 38.729l12.432 7.132v45.998c-5.009 5.856-7.828 13.395-7.828 21.151v7.679c0 4.653 1.612 8.936 4.305 12.321-2.694 3.385-4.305 7.668-4.305 12.321v117.326c0 4.142 3.357 7.5 7.5 7.5s7.5-3.358 7.5-7.5v-117.327c0-2.658 2.163-4.821 4.821-4.821h25.358c2.658 0 4.82 2.163 4.82 4.821v172.018c0 9.649-7.851 17.5-17.5 17.5s-17.5-7.851-17.5-17.5v-19.771c0-4.142-3.357-7.5-7.5-7.5s-7.5 3.358-7.5 7.5v19.771c0 17.92 14.579 32.5 32.5 32.5s32.5-14.58 32.5-32.5v-172.018c0-4.653-1.612-8.936-4.305-12.321 2.694-3.385 4.305-7.668 4.305-12.321v-7.679c0-7.734-2.806-15.257-7.789-21.106v-46.045l12.412-7.128c13.824-7.94 22.412-22.776 22.412-38.718l.002-154.42c0-4.142-3.358-7.5-7.5-7.5zm-7.501 161.92c0 10.586-5.703 20.438-14.883 25.71l-16.177 9.291c-2.329 1.338-3.765 3.818-3.765 6.504v53.359c0 2.057.845 4.023 2.336 5.439 3.517 3.339 5.453 7.847 5.453 12.694v7.679c0 2.658-2.162 4.821-4.82 4.821h-25.358c-2.658 0-4.821-2.163-4.821-4.821v-7.679c0-4.86 1.946-9.377 5.48-12.719 1.499-1.417 2.348-3.388 2.348-5.45v-53.323c0-2.687-1.438-5.168-3.768-6.505l-16.2-9.294c-9.188-5.27-14.896-15.125-14.896-25.717v-34.405h89.07v34.416z"/>
            <path d="m302.75 125.741c0 15.26-3.349 27.141-9.429 33.454-5.8 6.022-14.661 7.287-21.073 7.287s-15.273-1.264-21.073-7.288c-6.079-6.312-9.428-18.192-9.428-33.453 0-4.142-3.357-7.5-7.5-7.5s-7.5 3.358-7.5 7.5c0 19.439 4.711 34.605 13.624 43.858 9.456 9.821 22.555 11.882 31.877 11.882s22.42-2.062 31.878-11.881c8.913-9.255 13.624-24.421 13.624-43.859 0-4.142-3.357-7.5-7.5-7.5s-7.5 3.358-7.5 7.5z"/>
            <path d="m272.249 0c-20.384 0-39.804 15.168-54.684 42.709-13.036 24.13-20.818 55.17-20.818 83.032 0 42.681 18.429 72.276 50.829 82.195v45.831c-5.008 5.856-7.827 13.395-7.827 21.15v7.679c0 4.652 1.611 8.935 4.305 12.32-2.694 3.385-4.306 7.668-4.306 12.321v172.018c0 17.92 14.58 32.5 32.501 32.5 17.92 0 32.499-14.58 32.499-32.5v-111.112c0-4.142-3.357-7.5-7.5-7.5s-7.5 3.358-7.5 7.5v111.113c0 9.649-7.851 17.5-17.5 17.5s-17.5-7.851-17.5-17.5v-172.018c0-2.658 2.163-4.821 4.821-4.821h25.358c2.658 0 4.82 2.163 4.82 4.821v26.324c0 4.142 3.357 7.5 7.5 7.5s7.5-3.358 7.5-7.5v-26.324c0-4.652-1.611-8.935-4.305-12.32 2.694-3.385 4.306-7.668 4.306-12.321v-7.679c0-7.734-2.806-15.256-7.79-21.106v-45.887c32.375-9.93 50.79-39.521 50.79-82.183 0-27.862-7.782-58.902-20.818-83.032-14.879-27.542-34.298-42.71-54.681-42.71zm15.576 194.834c-3.429.766-5.866 3.808-5.866 7.32v54.631c0 2.057.845 4.023 2.336 5.439 3.518 3.339 5.454 7.847 5.454 12.694v7.679c0 2.658-2.163 4.821-4.821 4.821h-25.358c-2.658 0-4.82-2.163-4.82-4.821v-7.679c0-4.86 1.946-9.377 5.48-12.72 1.498-1.417 2.347-3.388 2.347-5.449v-54.586c0-3.514-2.439-6.557-5.869-7.321-28.993-6.457-44.96-30.997-44.96-69.1 0-25.488 7.108-53.862 19.016-75.902 11.96-22.142 27.081-34.84 41.485-34.84s29.523 12.698 41.484 34.839c11.907 22.04 19.016 50.415 19.016 75.902 0 38.087-15.955 62.625-44.924 69.093z"/>
            <path d="m464.044 314.917c0-7.735-2.806-15.257-7.79-21.106v-186.318c0-4.142-3.357-7.5-7.5-7.5s-7.5 3.358-7.5 7.5v189.291c0 2.057.845 4.023 2.337 5.439 3.517 3.338 5.453 7.846 5.453 12.693v7.679c0 2.658-2.162 4.821-4.82 4.821h-25.358c-2.658 0-4.821-2.163-4.821-4.821v-7.679c0-4.86 1.946-9.377 5.48-12.719 1.499-1.417 2.348-3.388 2.348-5.45v-35.332c0-4.142-3.357-7.5-7.5-7.5h-17.552v-176.145c0-28.205 18.224-52.496 44.434-60.771v56.237c0 4.142 3.357 7.5 7.5 7.5s7.5-3.358 7.5-7.5v-65.736c0-2.207-.972-4.301-2.656-5.727-1.686-1.425-3.914-2.036-6.088-1.669-38.063 6.404-65.689 39.067-65.689 77.666v183.647c0 4.142 3.357 7.5 7.5 7.5h17.552v24.85c-5.009 5.856-7.828 13.395-7.828 21.151v7.679c0 4.653 1.612 8.936 4.305 12.321-2.694 3.385-4.305 7.668-4.305 12.321v132.018c0 17.92 14.579 32.5 32.5 32.5s32.5-14.58 32.5-32.5v-132.019c0-4.653-1.612-8.936-4.305-12.321 2.694-3.385 4.305-7.668 4.305-12.321v-7.679zm-15 164.339c0 9.649-7.851 17.5-17.5 17.5s-17.5-7.851-17.5-17.5v-132.018c0-2.658 2.162-4.821 4.82-4.821h25.359c2.658 0 4.82 2.163 4.82 4.821v132.018z"/>
        </g>
    </symbol>

    <symbol id="about3" viewBox="0 0 512 512.03587">
        <path d="m315.925781 262.167969c4.363281-.003907 8.019531-3.304688 8.472657-7.644531.453124-4.339844-2.4375-8.324219-6.707032-9.234376-40.6875-8.40625-82.664062-8.40625-123.347656 0-3.023438.59375-5.492188 2.769532-6.460938 5.695313s-.28125 6.144531 1.792969 8.425781c2.074219 2.277344 5.214844 3.261719 8.214844 2.570313 38.347656-7.90625 77.90625-7.90625 116.25 0 .585937.128906 1.183594.191406 1.785156.1875zm0 0"/>
        <path d="m196.285156 204.824219c14.136719 0 25.597656-11.460938 25.597656-25.597657 0-14.140624-11.460937-25.601562-25.597656-25.601562-14.140625 0-25.601562 11.460938-25.601562 25.601562.015625 14.132813 11.46875 25.582032 25.601562 25.597657zm0-34.132813c4.710938 0 8.53125 3.820313 8.53125 8.535156 0 4.710938-3.820312 8.53125-8.53125 8.53125-4.714844 0-8.535156-3.820312-8.535156-8.53125.003906-4.710937 3.824219-8.53125 8.535156-8.535156zm0 0"/>
        <path d="m315.75 153.625c-14.136719 0-25.597656 11.460938-25.597656 25.601562 0 14.136719 11.460937 25.597657 25.597656 25.597657 14.140625 0 25.601562-11.460938 25.601562-25.597657-.015624-14.132812-11.46875-25.585937-25.601562-25.601562zm0 34.132812c-4.710938 0-8.53125-3.820312-8.53125-8.53125 0-4.714843 3.820312-8.535156 8.53125-8.535156 4.714844 0 8.535156 3.820313 8.535156 8.535156-.003906 4.710938-3.824218 8.527344-8.535156 8.53125zm0 0"/>
        <path d="m228.949219 291.625c-9.742188-9.738281-24.382813-12.664062-37.117188-7.421875-12.738281 5.242187-21.078125 17.625-21.144531 31.398437-.066406 13.773438 8.152344 26.238282 20.839844 31.605469 2.8125 1.226563 6.070312.84375 8.527344-.996093 2.457031-1.84375 3.734374-4.863282 3.34375-7.910157-.386719-3.042969-2.382813-5.644531-5.222657-6.8125-2.03125-.863281-3.875-2.109375-5.433593-3.667969-3.203126-3.199218-5.003907-7.539062-5.003907-12.066406s1.804688-8.867187 5.011719-12.0625c3.199219-3.210937 7.542969-5.011718 12.070312-5.011718 4.53125 0 8.875 1.800781 12.070313 5.011718 4.90625 4.917969 6.347656 12.3125 3.652344 18.714844-1.183594 2.8125-.777344 6.039062 1.0625 8.46875 1.84375 2.429688 4.84375 3.691406 7.867187 3.3125 3.027344-.378906 5.617188-2.34375 6.800782-5.15625 5.417968-12.796875 2.519531-27.601562-7.324219-37.414062zm0 0"/>
        <path d="m331.351562 291.625c-11.550781-11.53125-29.648437-13.273438-43.1875-4.164062-13.539062 9.113281-18.738281 26.535156-12.40625 41.578124 1.832032 4.34375 6.835938 6.382813 11.179688 4.554688 4.34375-1.832031 6.382812-6.835938 4.554688-11.179688-3.660157-8.691406.402343-18.703124 9.082031-22.382812 6.40625-2.710938 13.8125-1.257812 18.71875 3.667969 3.203125 3.195312 5.003906 7.539062 5.003906 12.066406-.003906 4.527344-1.804687 8.867187-5.011719 12.0625-1.558594 1.558594-3.398437 2.800781-5.425781 3.664063-2.839844 1.164062-4.835937 3.765624-5.226563 6.8125-.386718 3.046874.890626 6.066406 3.347657 7.90625 2.457031 1.84375 5.714843 2.222656 8.527343.996093 10.472657-4.410156 18.058594-13.746093 20.234376-24.902343 2.171874-11.152344-1.347657-22.652344-9.394532-30.675782zm0 0"/>
        <path d="m511.132812 144.6875c1.472657-2.984375 1.078126-6.550781-1.011718-9.140625-2.089844-2.585937-5.492188-3.726563-8.71875-2.914063-8.722656 2.855469-18.054688 3.269532-26.992188 1.207032-6.398437-2.597656-12.148437-6.574219-16.835937-11.644532-1.25-1.136718-2.492188-2.273437-3.734375-3.375-8.0625-7.210937-17.816406-12.269531-28.355469-14.710937 13.992187-27.589844 12.914063-58.269531-3.351563-89.507813-4.761718-8.90625-14.011718-14.492187-24.105468-14.5624995-9.808594-.5390625-19.058594 4.5742185-23.820313 13.1640625-12.53125 21.988281-45.144531 37.621094-55.605469 42.195313-40.003906-16.941407-85.164062-16.941407-125.164062 0-10.425781-4.558594-43.066406-20.179688-55.613281-42.179688-4.8125-8.535156-14.023438-13.632812-23.816407-13.1796875-10.097656.0703125-19.347656 5.6562495-24.109374 14.5624995-16.261719 31.238282-17.347657 61.914063-3.351563 89.503907-10.535156 2.441406-20.285156 7.5-28.347656 14.703125-1.25 1.109375-2.488281 2.246094-3.742188 3.382812-4.695312 5.078125-10.453125 9.058594-16.863281 11.652344-8.929688 2.046875-18.25 1.628906-26.960938-1.210938-3.226562-.8125-6.628906.328126-8.71875 2.914063-2.09375 2.589844-2.488281 6.15625-1.015624 9.140625.269531.542969 22.5625 44.339844 69.035156 44.339844 6.476562-.070313 12.921875-.898438 19.203125-2.476563-2.230469 11.648438-3.355469 23.480469-3.359375 35.339844-.011719 22.71875 4.167968 45.238281 12.332031 66.4375-29.96875 24.109375-46.890625 54.710937-46.890625 87.164063.464844 24.671874 9.742188 48.363281 26.148438 66.796874l-23.292969 20.699219c-3.023438 2.695313-3.734375 7.140625-1.707031 10.644531 2.03125 3.503907 6.242187 5.101563 10.082031 3.820313l65.566406-21.855469v47.894532c0 3.761718 2.46875 7.082031 6.070313 8.167968 3.601562 1.089844 7.492187-.3125 9.574218-3.445312l12.90625-19.441406c.234375-.273438.453125-.5625.652344-.859376l12.414062-18.640624 19.019532 38.042968c1.417968 2.867188 4.332031 4.695313 7.53125 4.71875 3.203125.027344 6.144531-1.753906 7.609375-4.597656 34.546875 6.121094 69.902343 6.121094 104.449219 0 1.464843 2.84375 4.40625 4.625 7.609374 4.597656 3.199219-.023437 6.113282-1.851562 7.535157-4.71875l19.011719-38.042968 12.417968 18.640624c.195313.296876.410156.578126.640625.84375l12.917969 19.457032c2.082031 3.132812 5.972656 4.535156 9.574219 3.445312 3.601562-1.085937 6.066406-4.40625 6.066406-8.167968v-47.894532l65.566406 21.855469c3.84375 1.28125 8.054688-.316406 10.085938-3.820313 2.027343-3.503906 1.3125-7.949218-1.710938-10.644531l-23.289062-20.699219c16.40625-18.433593 25.679687-42.125 26.148437-66.796874 0-32.453126-16.921875-63.054688-46.890625-87.164063 8.164063-21.199219 12.34375-43.71875 12.332031-66.4375-.003906-11.859375-1.128906-23.691406-3.359374-35.339844 6.28125 1.578125 12.726562 2.410157 19.199218 2.476563 46.46875-.007813 68.769532-43.796875 69.035156-44.339844zm-122.089843-123.035156c1.792969-3.039063 5.148437-4.800782 8.664062-4.550782 3.847657-.023437 7.402344 2.035157 9.292969 5.382813 14.996094 28.8125 14.722656 55.722656-.433594 80.113281-1.214844.070313-2.453125.148438-3.75.324219-5.632812.714844-11.179687 1.988281-16.5625 3.796875-13.339844-16.765625-29.671875-30.914062-48.167968-41.734375 16.207031-8.445313 39.535156-23.304687 50.957031-43.332031zm-284.007813.832031c1.890625-3.347656 5.445313-5.40625 9.289063-5.382813 3.515625-.210937 6.851562 1.546876 8.667969 4.5625 11.421874 20.019532 34.75 34.875 50.953124 43.320313-18.492187 10.820313-34.824218 24.96875-48.167968 41.734375-5.363282-1.804688-10.894532-3.074219-16.511719-3.792969-1.320313-.175781-2.570313-.257812-3.796875-.328125-15.15625-24.386718-15.433594-51.300781-.433594-80.113281zm-77.933594 129.730469c5.1875.050781 10.359376-.625 15.359376-2.011719 8.933593-3.242187 16.984374-8.519531 23.523437-15.417969l3.523437-3.1875c8.507813-7.707031 19.554688-12.015625 31.03125-12.105468 2.175782-.027344 4.351563.09375 6.507813.355468 2.734375.363282 5.445313.871094 8.125 1.519532-9.1875 14.257812-16.347656 29.726562-21.269531 45.957031-23.203125 9.800781-50.074219 3.722656-66.800782-15.109375zm144.105469 291.5625c-3.035156-.203125-5.949219 1.242187-7.621093 3.785156l-18.503907 27.785156v-31.589844c0-2.742187-1.316406-5.316406-3.542969-6.921874-2.226562-1.605469-5.085937-2.039063-7.6875-1.171876l-37.441406 12.480469 37.386719-33.171875c18.632813 11.773438 39.414063 19.738282 61.144531 23.441406l-3.933594 35.449219-12.691406-25.386719c-1.359375-2.722656-4.070312-4.515624-7.109375-4.699218zm35.101563 46.765625 5.511718-49.480469c29.355469 3.59375 59.039063 3.59375 88.394532 0l5.511718 49.480469c-32.890624 5.730469-66.527343 5.730469-99.417968 0zm171.875-54.878907c-2.601563-.867187-5.464844-.433593-7.6875 1.171876-2.226563 1.605468-3.546875 4.179687-3.546875 6.921874v31.589844l-18.5-27.785156c-1.6875-2.53125-4.59375-3.972656-7.628907-3.785156-3.035156.1875-5.742187 1.976562-7.101562 4.699218l-12.691406 25.386719-3.933594-35.449219c21.726562-3.703124 42.511719-11.667968 61.144531-23.441406l37.386719 33.171875zm-11.109375-175.019531c-4.328125-1.859375-9.347657.144531-11.207031 4.476563-1.859376 4.328125.144531 9.347656 4.476562 11.207031 52.222656 22.394531 83.40625 59.464844 83.40625 99.164063-.472656 20.492187-8.207031 40.152343-21.820312 55.476562l-30.003907-26.664062c13.609375-11.542969 22.851563-27.40625 26.175781-44.941407.519532-4.683593-2.855468-8.902343-7.542968-9.425781-4.683594-.519531-8.902344 2.859375-9.425782 7.542969-.074218.695312-9.257812 69.210937-145.117187 69.210937-60.386719 0-95.675781-13.363281-116.320313-28.359375-.78125-.875-1.734374-1.578125-2.796874-2.066406-13.238282-9.222656-22.523438-23.085937-26.003907-38.839844-.539062-4.683593-4.769531-8.042969-9.453125-7.507812-4.683594.539062-8.042968 4.769531-7.503906 9.453125 3.324219 17.53125 12.5625 33.394531 26.171875 44.9375l-30.003906 26.660156c-13.613281-15.324219-21.347657-34.984375-21.820313-55.476562 0-39.699219 31.183594-76.769532 83.40625-99.167969 4.332032-1.859375 6.335938-6.875 4.476563-11.207031-1.859375-4.332032-6.878907-6.335938-11.207031-4.476563-11.3125 4.828125-22.1875 10.621094-32.496094 17.324219-6.371094-18.007813-9.625-36.96875-9.621094-56.074219 0-89.398437 68.714844-162.132813 153.171875-162.132813 84.460937 0 153.175781 72.734376 153.175781 162.132813.003906 19.105469-3.25 38.066406-9.621094 56.074219-10.3125-6.703125-21.183593-12.496094-32.496093-17.324219zm29.789062-139.273437c2.691407-.65625 5.421875-1.164063 8.171875-1.527344 2.125-.261719 4.265625-.378906 6.40625-.351562 11.5.082031 22.566406 4.394531 31.09375 12.113281l3.515625 3.179687c6.527344 6.890625 14.570313 12.164063 23.492188 15.410156 5 1.433594 10.1875 2.109376 15.390625 2.015626-16.714844 18.855468-43.601563 24.941406-66.804688 15.113281-4.921875-16.230469-12.078125-31.695313-21.265625-45.953125zm0 0"/>
    </symbol>

    <symbol id="about4" viewBox="0 0 64 64">
        <g>
            <path d="m60.78 27.116c.139-.346.22-.721.22-1.116v-22c0-1.654-1.346-3-3-3h-24c-1.654 0-3 1.346-3 3v22c0 .395.081.77.22 1.116-1.275.345-2.22 1.501-2.22 2.884v5h-2v4h-2v3.245l-6.75 1.929c-.383-.685-.796-1.352-1.25-1.991v-7.222c1.021-.095 1.973-.518 2.708-1.253.833-.834 1.292-1.943 1.292-3.122v-1.865l3-1v-.721c0-2.068-1.204-4.85-2.213-6.819-.099-.193-.215-.372-.34-.543 2.073-.789 3.553-2.791 3.553-5.138 0-3.033-2.467-5.5-5.5-5.5h-5.139c-7.367 0-13.361 5.994-13.361 13.361 0 5.094 2.83 9.673 7.385 11.951l.615.307v1.688l-.598.224c-4.36 1.636-7.305 5.825-7.394 10.469h-.008v16h20v-5.729l4-1.433v7.162h13c1.654 0 3-1.346 3-3v-15h2.184c-.112.314-.184.648-.184 1v12c0 1.654 1.346 3 3 3h12c1.654 0 3-1.346 3-3v-12c0-.395-.081-.77-.22-1.116 1.275-.346 2.22-1.501 2.22-2.884v-12c0-1.383-.945-2.539-2.22-2.884zm-17.78-24.116h6v4h-6zm-10 1c0-.551.449-1 1-1h7v6h10v-6h7c.551 0 1 .449 1 1v22c0 .551-.449 1-1 1h-10-4-10c-.551 0-1-.449-1-1zm20 25h2v2h-2zm-16 0h2v2h-2zm-8 8h9c.551 0 1 .448 1 1s-.449 1-1 1h-9zm-16.476 15.89 14.258-4.074.72-2.158c.181-.544.613-.976 1.157-1.157.66-.219 1.377-.051 1.871.442l1.056 1.057h1.571c1.016 0 1.843.827 1.843 1.844 0 .823-.554 1.553-1.414 1.796l-16.222 5.81c-1.02.364-2.087.55-3.172.55h-1.342c-1.274 0-2.522-.268-3.678-.759zm12.476-8.564v2.92l-4.885 1.395c-.264-.904-.577-1.789-.955-2.646zm-3.056-18.028-2.944.982v3.307c0 .645-.251 1.251-.708 1.708-.455.456-1.061.707-1.706.707l-3.586-.002v2l2 .001v4.767c-1.192-1.252-2.531-2.362-4-3.299v-7.883l-1.707-1.707c-.189-.189-.293-.441-.293-.708v-.171c0-.551.449-1 1-1h1v-3c0-1.103.897-2 2-2h5 .223c.755 0 1.438.419 1.784 1.093 1.075 2.097 1.745 3.907 1.937 5.205zm-18.944-3.937c0-6.264 5.097-11.361 11.361-11.361h5.139c1.93 0 3.5 1.57 3.5 3.5s-1.57 3.5-3.5 3.5h-1.277-.223-5c-2.206 0-4 1.794-4 4v1.171c-1.164.413-2 1.525-2 2.829v.171c0 .801.312 1.555.879 2.122l1.121 1.121v2.943c-3.703-1.984-6-5.775-6-9.996zm6.105 16.043.766-.288c4.016 2.544 6.992 6.517 8.324 11.074l-5.549 1.585-.394-1.181c-.925-2.774-3.172-4.855-6.01-5.564l-.485 1.94c2.171.543 3.89 2.135 4.598 4.258l.501 1.503-3.498 3.498c-.216-.155-.427-.319-.63-.493l-.442-.379c-2.088-1.791-3.286-4.394-3.286-7.144 0-3.9 2.453-7.44 6.105-8.809zm9.895 22.596h-16v-7.362c.559.818 1.215 1.577 1.984 2.236l.442.379c2.066 1.771 4.702 2.747 7.424 2.747h1.342c1.315 0 2.609-.225 3.847-.668l.961-.344zm19 0h-11v-5.879l7.193-2.577c1.653-.463 2.807-1.984 2.807-3.7 0-2.119-1.724-3.844-3.843-3.844h-.743l-.471-.471c-1.032-1.033-2.533-1.388-3.917-.926-.375.125-.712.325-1.026.554v-3.157h11c.352 0 .686-.072 1-.184v19.184c0 .552-.449 1-1 1zm3-23c0-1.654-1.346-3-3-3h-7v-5c0-.551.449-1 1-1h2 1v4h6v-4h3c.551 0 1 .449 1 1v12c0 .552-.449 1-1 1h-3zm18 20c0 .552-.449 1-1 1h-12c-.551 0-1-.448-1-1v-12c0-.552.449-1 1-1h2 1v4h6v-4h3c.551 0 1 .448 1 1zm-8-13h2v2h-2zm10-3c0 .552-.449 1-1 1h-2-10c-.551 0-1-.448-1-1v-12c0-.551.449-1 1-1h3v4h6v-4h1 2c.551 0 1 .449 1 1z"/>
            <path d="m51 23h2v2h-2z"/>
            <path d="m55 23h2v2h-2z"/>
            <path d="m47 23h2v2h-2z"/>
            <path d="m47 19h10v2h-10z"/>
        </g>
    </symbol>

    <symbol id="about5" viewBox="0 0 128 128">
        <g>
            <path d="m89.249 39.321a1.75 1.75 0 0 0 -1.237.513l-30.478 30.478-17.54-17.541a1.8 1.8 0 0 0 -2.474 0l-7.071 7.072a1.75 1.75 0 0 0 0 2.474l25.851 25.849a1.748 1.748 0 0 0 2.474 0l38.783-38.786a1.751 1.751 0 0 0 0-2.475l-7.071-7.071a1.75 1.75 0 0 0 -1.237-.513zm-31.715 45.133-23.373-23.374 4.6-4.6 17.539 17.543a1.748 1.748 0 0 0 2.474 0l30.475-30.477 4.6 4.6z"/>
            <path d="m64 16.332a47.668 47.668 0 1 0 47.668 47.668 47.722 47.722 0 0 0 -47.668-47.668zm0 91.836a44.168 44.168 0 1 1 44.168-44.168 44.218 44.218 0 0 1 -44.168 44.168z"/>
            <path d="m126.029 69.613a8.925 8.925 0 0 0 0-11.226l-2.868-3.58a5.483 5.483 0 0 1 -.983-4.959l1.28-4.391a9.035 9.035 0 0 0 -4.306-10.389l-4.007-2.2a5.482 5.482 0 0 1 -2.815-4.2l-.5-4.555a8.924 8.924 0 0 0 -7.941-7.941l-4.555-.5a5.479 5.479 0 0 1 -4.2-2.814l-2.2-4.008a8.924 8.924 0 0 0 -10.39-4.306l-4.39 1.279a5.491 5.491 0 0 1 -4.961-.984l-3.58-2.868a8.928 8.928 0 0 0 -11.226 0l-3.58 2.868a5.5 5.5 0 0 1 -4.959.983l-4.391-1.28a9.033 9.033 0 0 0 -10.389 4.306l-2.2 4.007a5.482 5.482 0 0 1 -4.2 2.815l-4.555.5a8.924 8.924 0 0 0 -7.941 7.941l-.5 4.555a5.479 5.479 0 0 1 -2.814 4.2l-4.008 2.2a8.927 8.927 0 0 0 -4.306 10.39l1.281 4.389a5.491 5.491 0 0 1 -.984 4.961l-2.868 3.58a8.925 8.925 0 0 0 0 11.226l2.868 3.58a5.483 5.483 0 0 1 .983 4.959l-1.28 4.391a9.035 9.035 0 0 0 4.304 10.39l4.007 2.2a5.482 5.482 0 0 1 2.815 4.2l.5 4.555a8.924 8.924 0 0 0 7.941 7.941l4.555.5a5.479 5.479 0 0 1 4.2 2.814l2.2 4.008a8.924 8.924 0 0 0 10.39 4.306l4.389-1.281a5.5 5.5 0 0 1 4.961.984l3.58 2.868a8.925 8.925 0 0 0 11.226 0l3.58-2.868a5.486 5.486 0 0 1 4.959-.983l4.391 1.28a8.926 8.926 0 0 0 10.389-4.306l2.2-4.007a5.482 5.482 0 0 1 4.2-2.815l4.555-.5a8.924 8.924 0 0 0 7.941-7.941l.5-4.555a5.479 5.479 0 0 1 2.814-4.2l4.008-2.2a8.927 8.927 0 0 0 4.306-10.39l-1.281-4.389a5.491 5.491 0 0 1 .984-4.961zm-5.6 1.393a8.993 8.993 0 0 0 -1.612 8.128l1.282 4.389a5.447 5.447 0 0 1 -2.628 6.339l-4.009 2.2a8.98 8.98 0 0 0 -4.61 6.891l-.5 4.555a5.45 5.45 0 0 1 -4.846 4.846l-4.556.5a8.984 8.984 0 0 0 -6.89 4.611l-2.2 4.008a5.45 5.45 0 0 1 -6.338 2.628l-4.39-1.281a8.984 8.984 0 0 0 -8.127 1.611l-3.58 2.868a5.446 5.446 0 0 1 -6.852 0l-3.58-2.868a8.991 8.991 0 0 0 -8.128-1.612l-4.388 1.281a5.453 5.453 0 0 1 -6.339-2.628l-2.2-4.009a8.98 8.98 0 0 0 -6.891-4.61l-4.555-.5a5.45 5.45 0 0 1 -4.846-4.846l-.5-4.556a8.984 8.984 0 0 0 -4.611-6.89l-4.008-2.2a5.512 5.512 0 0 1 -2.627-6.338l1.281-4.39a8.988 8.988 0 0 0 -1.611-8.127l-2.87-3.58a5.448 5.448 0 0 1 0-6.852l2.868-3.58a8.993 8.993 0 0 0 1.612-8.128l-1.28-4.389a5.447 5.447 0 0 1 2.628-6.339l4.009-2.2a8.98 8.98 0 0 0 4.61-6.891l.5-4.555a5.45 5.45 0 0 1 4.853-4.843l4.556-.5a8.984 8.984 0 0 0 6.89-4.611l2.2-4.008a5.516 5.516 0 0 1 6.331-2.63l4.39 1.281a8.986 8.986 0 0 0 8.127-1.611l3.58-2.87a5.447 5.447 0 0 1 6.852 0l3.58 2.868a9 9 0 0 0 8.128 1.612l4.389-1.28a5.454 5.454 0 0 1 6.339 2.628l2.2 4.009a8.98 8.98 0 0 0 6.891 4.61l4.555.5a5.45 5.45 0 0 1 4.846 4.846l.5 4.556a8.984 8.984 0 0 0 4.611 6.89l4.008 2.2a5.513 5.513 0 0 1 2.628 6.338l-1.281 4.39a8.988 8.988 0 0 0 1.611 8.127l2.868 3.58a5.448 5.448 0 0 1 0 6.852z"/>
        </g>
    </symbol>

    <symbol id="about6" viewBox="0 0 74 74">
        <path d="m27.813 53.625a25.81 25.81 0 0 1 -18.25-44.062 25.8 25.8 0 0 1 36.5 0 25.813 25.813 0 0 1 -18.25 44.063zm0-49.625a23.81 23.81 0 0 0 -16.836 40.649 23.81 23.81 0 1 0 33.672-33.672 23.655 23.655 0 0 0 -16.836-6.977z"/>
        <path d="m27.813 47.807a19.994 19.994 0 1 1 14.145-5.85 19.94 19.94 0 0 1 -14.145 5.85zm0-37.989a18 18 0 1 0 12.73 5.265 17.948 17.948 0 0 0 -12.73-5.265z"/>
        <path d="m46.532 53.794-5.06-5.06 1.414-1.414 3.646 3.646 4.434-4.434-3.646-3.646 1.414-1.414 5.06 5.06z"/>
        <path d="m64.108 72a7.866 7.866 0 0 1 -5.58-2.308l-12.7-12.7a3.756 3.756 0 0 1 0-5.312l5.848-5.848a3.847 3.847 0 0 1 5.313 0l12.7 12.7a7.888 7.888 0 0 1 -5.581 13.468zm-9.779-25.275a1.747 1.747 0 0 0 -1.242.515l-5.848 5.848a1.756 1.756 0 0 0 0 2.484l12.7 12.7a5.892 5.892 0 0 0 8.332-8.332l-12.7-12.7a1.745 1.745 0 0 0 -1.242-.515z"/>
        <path d="m54.871 60.763h13.784v2h-13.784z" transform="matrix(.707 -.707 .707 .707 -25.583 61.762)"/>
        <path d="m27.814 36.169h-.075a7.523 7.523 0 0 1 -5.513-3.069 9.961 9.961 0 0 1 -.6-.878 9.658 9.658 0 0 1 -1.127-2.71 2.672 2.672 0 0 1 -1.3-2.394 2.781 2.781 0 0 1 1-2.233v-.558q0-.281.018-.562a1 1 0 1 1 2 .13c-.009.144-.014.288-.014.432v.635a1.8 1.8 0 0 1 -.793 1.518.868.868 0 0 0 -.206.638.8.8 0 0 0 .227.619 1.81 1.81 0 0 1 1 1.228 7.665 7.665 0 0 0 .91 2.215 7.792 7.792 0 0 0 .482.7 5.507 5.507 0 0 0 4 2.28 5.492 5.492 0 0 0 4-2.277 7.954 7.954 0 0 0 .489-.708 7.669 7.669 0 0 0 .907-2.211 1.806 1.806 0 0 1 .994-1.227.78.78 0 0 0 .233-.622 1.108 1.108 0 0 0 -.337-.737 1.009 1.009 0 0 1 -.285-1.378.991.991 0 0 1 1.369-.285 3.047 3.047 0 0 1 1.241 2.409 2.675 2.675 0 0 1 -1.3 2.392 9.567 9.567 0 0 1 -1.74 3.6 7.5 7.5 0 0 1 -5.5 3.056z"/>
        <path d="m40.33 43.1a1 1 0 0 1 -1-1v-2.88a1.2 1.2 0 0 0 -.637-1.066 49.437 49.437 0 0 0 -8.318-2.885 1 1 0 0 1 .49-1.939 50.375 50.375 0 0 1 8.764 3.057 3.194 3.194 0 0 1 1.7 2.833v2.88a1 1 0 0 1 -.999 1z"/>
        <path d="m15.3 43.1a1 1 0 0 1 -1-1v-2.88a3.193 3.193 0 0 1 1.7-2.834 50.079 50.079 0 0 1 8.761-3.056 1 1 0 1 1 .489 1.939 49.12 49.12 0 0 0 -8.314 2.883 1.2 1.2 0 0 0 -.636 1.068v2.88a1 1 0 0 1 -1 1z"/>
        <path d="m34.745 26.63a1.017 1.017 0 0 1 -.19-.018 1.23 1.23 0 0 1 -.9-.907 2.729 2.729 0 0 0 -1.655-2.095 3.038 3.038 0 0 0 -2.917.268 11.678 11.678 0 0 1 -2.319 1.212 7.538 7.538 0 0 1 -3.391.536 5.06 5.06 0 0 1 -2.792-1.01 4.926 4.926 0 0 1 -1.656-4.17 1.018 1.018 0 0 1 .642-.9.886.886 0 0 1 1 .248c.084.036.688-.024 1.583-1.313a7.87 7.87 0 0 1 7.21-3.045 3.971 3.971 0 0 1 2.968 2.371 3.04 3.04 0 0 1 2.373.5c1.457 1.1 1.793 3.556 1.029 7.516a1 1 0 0 1 -.985.807zm-13.727-4.887a2.387 2.387 0 0 0 .806 1.3 3.123 3.123 0 0 0 1.716.584 5.578 5.578 0 0 0 2.5-.407 9.79 9.79 0 0 0 1.925-1.005 5.022 5.022 0 0 1 4.83-.445 4.877 4.877 0 0 1 1.322.844c.072-1.979-.421-2.562-.62-2.714-.489-.375-1.364.035-1.373.04a1.012 1.012 0 0 1 -.879 0 1 1 0 0 1 -.544-.686 2.143 2.143 0 0 0 -1.733-1.854 5.947 5.947 0 0 0 -5.178 2.222 4.475 4.475 0 0 1 -2.772 2.121z"/>
        <path d="m34.77 46.5a1 1 0 0 1 -1-1l-.01-5.29a1 1 0 0 1 1-1 1 1 0 0 1 1 1l.01 5.29a1 1 0 0 1 -1 1z"/>
        <path d="m20.86 46.5a1 1 0 0 1 -1-1v-5.27a1 1 0 0 1 2 0v5.27a1 1 0 0 1 -1 1z"/>
    </symbol>

    <symbol id="info1" viewBox="0 0 477.883 477.883">
        <g>
            <g>
                <path d="M468.456,1.808c-4.811-2.411-10.478-2.411-15.289,0l0,0L9.433,223.675c-8.429,4.219-11.842,14.471-7.624,22.9
			c2.401,4.798,6.919,8.188,12.197,9.151l176.111,32.034l32.034,176.111c1.311,7.219,7.091,12.793,14.353,13.841
			c0.803,0.116,1.613,0.173,2.423,0.171c6.469,0.003,12.383-3.651,15.275-9.438L476.07,24.711
			C480.292,16.284,476.883,6.03,468.456,1.808z M246.557,407.38l-24.986-137.353c-1.292-6.936-6.718-12.362-13.653-13.653
			L70.498,231.32L422.634,55.244L246.557,407.38z"/>
            </g>
        </g>

    </symbol>

    <symbol id="info2" viewBox="0 0 512 512">
        <g>
            <g>
                <path d="M157.662,102.614c-4.427,0-8.017,3.589-8.017,8.017c0,9.725-7.912,17.637-17.637,17.637s-17.637-7.912-17.637-17.637
			s7.912-17.637,17.637-17.637c4.427,0,8.017-3.589,8.017-8.017s-3.589-8.017-8.017-8.017c-18.566,0-33.67,15.105-33.67,33.67
			s15.105,33.67,33.67,33.67s33.67-15.105,33.67-33.67C165.679,106.203,162.089,102.614,157.662,102.614z"/>
            </g>
        </g>
        <g>
            <g>
                <path d="M157.662,196.676c-4.427,0-8.017,3.589-8.017,8.017c0,9.725-7.912,17.637-17.637,17.637s-17.637-7.912-17.637-17.637
			s7.912-17.637,17.637-17.637c4.427,0,8.017-3.589,8.017-8.017s-3.589-8.017-8.017-8.017c-18.566,0-33.67,15.105-33.67,33.67
			s15.105,33.67,33.67,33.67s33.67-15.105,33.67-33.67C165.679,200.266,162.089,196.676,157.662,196.676z"/>
            </g>
        </g>
        <g>
            <g>
                <path d="M251.724,213.779h-59.858c-4.427,0-8.017,3.589-8.017,8.017s3.589,8.017,8.017,8.017h59.858
			c4.427,0,8.017-3.589,8.017-8.017S256.152,213.779,251.724,213.779z"/>
            </g>
        </g>
        <g>
            <g>
                <path d="M251.724,179.574h-59.858c-4.427,0-8.017,3.589-8.017,8.017s3.589,8.017,8.017,8.017h59.858
			c4.427,0,8.017-3.589,8.017-8.017S256.152,179.574,251.724,179.574z"/>
            </g>
        </g>
        <g>
            <g>
                <path d="M234.622,307.841h-42.756c-4.427,0-8.017,3.589-8.017,8.017s3.589,8.017,8.017,8.017h42.756
			c4.427,0,8.017-3.589,8.017-8.017S239.049,307.841,234.622,307.841z"/>
            </g>
        </g>
        <g>
            <g>
                <path d="M251.724,273.637h-59.858c-4.427,0-8.017,3.589-8.017,8.017s3.589,8.017,8.017,8.017h59.858
			c4.427,0,8.017-3.589,8.017-8.017S256.152,273.637,251.724,273.637z"/>
            </g>
        </g>
        <g>
            <g>
                <path d="M328.685,119.716H191.866c-4.427,0-8.017,3.589-8.017,8.017s3.589,8.017,8.017,8.017h136.818
			c4.427,0,8.017-3.589,8.017-8.017S333.112,119.716,328.685,119.716z"/>
            </g>
        </g>
        <g>
            <g>
                <path d="M294.48,85.511H191.866c-4.427,0-8.017,3.589-8.017,8.017s3.589,8.017,8.017,8.017H294.48
			c4.427,0,8.017-3.589,8.017-8.017S298.908,85.511,294.48,85.511z"/>
            </g>
        </g>
        <g>
            <g>
                <path d="M157.662,290.739c-4.427,0-8.017,3.589-8.017,8.017c0,9.725-7.912,17.637-17.637,17.637s-17.637-7.912-17.637-17.637
			s7.912-17.637,17.637-17.637c4.427,0,8.017-3.589,8.017-8.017s-3.589-8.017-8.017-8.017c-18.566,0-33.67,15.105-33.67,33.67
			s15.105,33.67,33.67,33.67s33.67-15.105,33.67-33.67C165.679,294.328,162.089,290.739,157.662,290.739z"/>
            </g>
        </g>
        <g>
            <g>
                <path d="M362.889,0H72.15C58.3,0,47.031,11.268,47.031,25.119v359.148c0,13.851,11.268,25.119,25.119,25.119h145.37
			c4.427,0,8.017-3.589,8.017-8.017c0-4.427-3.589-8.017-8.017-8.017H72.15c-5.01,0-9.086-4.076-9.086-9.086V25.119
			c0-5.01,4.076-9.086,9.086-9.086h290.739c5.01,0,9.086,4.076,9.086,9.086v265.087c0,4.427,3.589,8.017,8.017,8.017
			c4.427,0,8.017-3.589,8.017-8.017V25.119C388.008,11.268,376.74,0,362.889,0z"/>
            </g>
        </g>
        <g>
            <g>
                <path d="M438.578,325.094c-7.451-0.743-14.898,1.369-20.792,5.844c-4.695-7.878-12.701-13.467-21.964-14.395
			c-7.453-0.742-14.899,1.37-20.792,5.844c-4.695-7.878-12.701-13.467-21.964-14.395c-5.69-0.568-11.372,0.528-16.365,3.069V208.969
			c0-8.289-3.526-16.235-9.677-21.8c-6.145-5.56-14.426-8.274-22.721-7.444c-14.799,1.482-26.391,14.863-26.391,30.464v102.35
			l-23.566,23.566c-12.523,12.523-17.578,30.291-13.521,47.531l17.891,76.037c7.249,30.811,34.418,52.329,66.07,52.329h72.307
			c37.426,0,67.875-30.448,67.875-67.875v-88.567C464.969,339.957,453.377,326.576,438.578,325.094z M448.935,444.125
			c0,28.585-23.256,51.841-51.841,51.841h-72.307c-24.175,0-44.927-16.435-50.464-39.968l-17.891-76.037
			c-2.776-11.795,0.683-23.953,9.251-32.521l12.229-12.229v27.678c0,4.427,3.589,8.017,8.017,8.017s8.017-3.589,8.017-8.017V210.188
			c0-7.465,5.251-13.839,11.956-14.509c3.851-0.387,7.534,0.815,10.366,3.379c2.797,2.531,4.401,6.144,4.401,9.912v141.094
			c0,4.427,3.589,8.017,8.017,8.017s8.017-3.589,8.017-8.017v-12.827c0-3.768,1.603-7.381,4.401-9.912
			c2.834-2.564,6.515-3.767,10.366-3.379c6.704,0.671,11.956,7.045,11.956,14.51v20.157c0,4.427,3.589,8.017,8.017,8.017
			c4.427,0,8.017-3.589,8.017-8.017v-12.827c0-3.768,1.603-7.381,4.401-9.912c2.834-2.564,6.516-3.766,10.366-3.379
			c6.704,0.671,11.956,7.045,11.956,14.51v20.158c0,4.427,3.589,8.017,8.017,8.017c4.427,0,8.017-3.589,8.017-8.017v-12.827
			c0-3.768,1.603-7.381,4.401-9.912c2.834-2.563,6.513-3.767,10.366-3.378c6.704,0.67,11.956,7.044,11.956,14.509V444.125z"/>
            </g>
        </g>
    </symbol>
    <symbol id="info3" viewBox="0 0 512 512">
        <g>
            <g>
                <path d="m380.264 338.363h-147.703c-4.143 0-7.502 3.359-7.502 7.502s3.359 7.502 7.502 7.502h147.703c4.144 0 7.502-3.359 7.502-7.502s-3.358-7.502-7.502-7.502z"/>
                <path d="m380.264 379.478h-147.703c-4.143 0-7.502 3.359-7.502 7.502s3.359 7.502 7.502 7.502h147.703c4.144 0 7.502-3.358 7.502-7.502s-3.358-7.502-7.502-7.502z"/>
                <path d="m387.766 145.817c0-15.605-12.696-28.299-28.3-28.299h-106.108c-15.605 0-28.3 12.695-28.3 28.299v6.532c0 4.144 3.359 7.502 7.502 7.502s7.502-3.359 7.502-7.502v-6.532c0-7.331 5.964-13.294 13.295-13.294h106.108c7.331 0 13.295 5.964 13.295 13.294v110.182c-8.902-11.088-20.486-19.815-33.784-25.299 5.063-6.776 8.064-15.178 8.064-24.269 0-22.403-18.227-40.629-40.63-40.629s-40.629 18.227-40.629 40.629c0 9.09 3.001 17.492 8.064 24.269-13.298 5.484-24.882 14.211-33.784 25.299v-68.575c0-4.144-3.359-7.502-7.502-7.502s-7.502 3.359-7.502 7.502v89.967c0 15.605 12.696 28.3 28.3 28.3h106.108c15.605 0 28.3-12.696 28.3-28.3v-131.574zm-81.354 34.99c14.13 0 25.625 11.495 25.625 25.625s-11.496 25.625-25.625 25.625c-14.13 0-25.625-11.495-25.625-25.625s11.495-25.625 25.625-25.625zm53.054 109.878h-106.108c-5.274 0-9.827-3.094-11.974-7.556 8.071-20.022 24.78-35.116 45.47-41.099 5.806 3.203 12.472 5.03 19.558 5.03 7.087 0 13.753-1.828 19.559-5.03 20.69 5.982 37.399 21.076 45.47 41.099-2.148 4.462-6.701 7.556-11.975 7.556z"/>
                <path d="m460.295 423.387c4.144 0 7.502-3.358 7.502-7.502v-387.174c0-15.831-12.88-28.711-28.712-28.711h-329.408c-15.832 0-28.712 12.88-28.712 28.711v24.453h-11.419c-13.974 0-25.343 11.369-25.343 25.342 0 13.974 11.369 25.343 25.343 25.343h11.419v38.06h-11.419c-13.974 0-25.343 11.369-25.343 25.343s11.369 25.343 25.343 25.343h11.419v38.06h-11.419c-13.974 0-25.343 11.369-25.343 25.343s11.369 25.343 25.343 25.343h11.419v38.06h-11.419c-13.974 0-25.343 11.369-25.343 25.343s11.369 25.343 25.343 25.343h11.419v38.06h-11.419c-13.974 0-25.343 11.369-25.343 25.343 0 13.973 11.369 25.342 25.343 25.342h11.419v24.453c0 15.831 12.88 28.711 28.712 28.711h329.408c15.832 0 28.712-12.88 28.712-28.711v-32.255c0-4.144-3.358-7.502-7.502-7.502s-7.502 3.359-7.502 7.502v32.259c0 7.558-6.149 13.707-13.708 13.707h-266.642v-481.991h266.641c7.558 0 13.708 6.148 13.708 13.707v387.173c0 4.144 3.359 7.502 7.503 7.502zm-390.749-334.542c-5.7 0-10.338-4.638-10.338-10.338s4.638-10.337 10.338-10.337h37.843c5.7 0 10.338 4.637 10.338 10.337s-4.638 10.338-10.338 10.338zm0 88.747c-5.7 0-10.338-4.638-10.338-10.338s4.638-10.338 10.338-10.338h18.902c.007 0 .013.001.019.001s.013-.001.019-.001h18.902c5.7 0 10.338 4.638 10.338 10.338s-4.638 10.338-10.338 10.338zm0 88.746c-5.7 0-10.338-4.638-10.338-10.338s4.638-10.338 10.338-10.338h37.843c5.7 0 10.338 4.638 10.338 10.338s-4.638 10.338-10.338 10.338zm0 88.747c-5.7 0-10.338-4.638-10.338-10.338s4.638-10.338 10.338-10.338h37.843c5.7 0 10.338 4.638 10.338 10.338s-4.638 10.338-10.338 10.338zm0 88.745c-5.7 0-10.338-4.637-10.338-10.337s4.638-10.338 10.338-10.338h37.843c5.7 0 10.338 4.638 10.338 10.338s-4.638 10.337-10.338 10.337zm87.893 53.165h-47.762c-7.558 0-13.707-6.148-13.707-13.707v-24.453h11.419c13.974 0 25.343-11.369 25.343-25.342 0-13.974-11.369-25.343-25.343-25.343h-11.419v-38.06h11.419c13.974 0 25.343-11.369 25.343-25.343s-11.369-25.343-25.343-25.343h-11.419v-38.06h11.419c13.974 0 25.343-11.369 25.343-25.343s-11.369-25.343-25.343-25.343h-11.419v-38.06h11.419c13.974 0 25.343-11.369 25.343-25.343s-11.369-25.343-25.343-25.343h-11.419v-38.06h11.419c13.974 0 25.343-11.369 25.343-25.343 0-13.973-11.369-25.342-25.343-25.342h-11.419v-24.456c0-7.558 6.149-13.707 13.707-13.707h47.762z"/>
            </g>
        </g>
    </symbol>

    <symbol id="info4" viewBox="0 0 511.999 511.999">
        <g>
            <g>
                <path d="M321.356,63.796c-56.318-28.458-124.159-17.577-168.81,27.075c-51.895,51.894-57.089,134.64-12.081,192.474
			c1.591,2.044,3.969,3.114,6.373,3.114c1.732,0,3.477-0.555,4.95-1.702c3.517-2.737,4.149-7.806,1.413-11.323
			c-40.019-51.422-35.394-125.002,10.757-171.153c39.71-39.712,100.038-49.39,150.122-24.083c3.976,2.012,8.83,0.414,10.84-3.563
			C326.929,70.658,325.335,65.805,321.356,63.796z"/>
            </g>
        </g>
        <g>
            <g>
                <path d="M385.787,128.239c-2.01-3.977-6.861-5.573-10.841-3.565c-3.977,2.009-5.574,6.861-3.565,10.84
			c25.289,50.076,15.606,110.396-24.095,150.096c-46.152,46.15-119.731,50.774-171.153,10.757
			c-3.518-2.736-8.586-2.104-11.323,1.412c-2.737,3.517-2.104,8.586,1.413,11.323c26.344,20.502,57.855,30.586,89.266,30.586
			c37.547,0,74.952-14.411,103.209-42.668C403.339,252.38,414.225,184.552,385.787,128.239z"/>
            </g>
        </g>
        <g>
            <g>
                <path d="M364.94,97.508c-1.999-2.262-4.099-4.496-6.242-6.638c-2.143-2.143-4.376-4.243-6.638-6.242
			c-3.339-2.952-8.439-2.636-11.388,0.703c-2.953,3.338-2.639,8.437,0.7,11.388c2.015,1.78,4.005,3.652,5.915,5.561
			c1.908,1.91,3.78,3.899,5.561,5.914c1.594,1.804,3.816,2.725,6.049,2.725c1.899,0,3.805-0.667,5.34-2.023
			C367.577,105.946,367.891,100.847,364.94,97.508z"/>
            </g>
        </g>
        <g>
            <g>
                <path d="M446.066,208.41c5.38-8.827,5.38-19.791-0.002-28.616l-10.615-17.407c-1.398-2.294-1.939-5.018-1.521-7.67l3.164-20.103
			c1.613-10.245-2.596-20.398-10.982-26.499l-16.451-11.966c-2.175-1.583-3.721-3.892-4.354-6.506l-4.791-19.799
			c-2.432-10.057-10.191-17.815-20.247-20.249l-19.8-4.792c-2.614-0.633-4.925-2.179-6.506-4.354l-11.968-16.455
			c-6.1-8.386-16.254-12.597-26.496-10.983l-20.11,3.164c-2.652,0.417-5.377-0.123-7.669-1.521L270.308,4.036
			c-8.826-5.382-19.79-5.381-28.616,0l-17.408,10.615c-2.292,1.399-5.015,1.937-7.67,1.521l-20.104-3.164
			c-10.242-1.612-20.397,2.597-26.497,10.983l-11.966,16.451c-1.583,2.175-3.893,3.721-6.508,4.354l-19.799,4.791
			c-10.055,2.432-17.815,10.191-20.249,20.247l-4.792,19.8c-0.633,2.614-2.178,4.925-4.354,6.506L85.89,108.108
			c-8.386,6.099-12.594,16.251-10.983,26.496l3.164,20.111c0.417,2.653-0.123,5.377-1.521,7.669l-10.617,17.411
			c-5.38,8.826-5.38,19.79,0.001,28.615l10.615,17.408c1.398,2.294,1.939,5.018,1.521,7.67l-3.164,20.104
			c-1.613,10.244,2.596,20.398,10.982,26.498l16.451,11.966c2.175,1.581,3.721,3.892,4.354,6.506l4.791,19.799
			c2.432,10.057,10.191,17.815,20.247,20.249l8.268,2.001L84.045,465.425c-1.189,2.653-0.86,5.739,0.863,8.081
			c1.722,2.342,4.569,3.577,7.457,3.231l45.022-5.383l25.936,37.191c1.518,2.175,3.995,3.453,6.616,3.453
			c0.251,0,0.505-0.012,0.757-0.035c2.894-0.272,5.419-2.081,6.608-4.732l57.145-127.479l7.241,4.415
			c4.413,2.691,9.36,4.036,14.308,4.036c4.948,0,9.895-1.346,14.308-4.036l7.502-4.574l57.217,127.638
			c1.189,2.653,3.713,4.46,6.608,4.732c0.253,0.024,0.506,0.036,0.757,0.036c2.621,0,5.099-1.278,6.616-3.453l25.936-37.191
			l45.022,5.383c2.886,0.343,5.735-0.889,7.457-3.231c1.722-2.342,2.053-5.428,0.863-8.081l-55.983-124.883l7.957-1.925
			c10.055-2.432,17.815-10.191,20.249-20.247l4.792-19.8c0.633-2.614,2.179-4.925,4.354-6.506l16.455-11.968
			c8.386-6.099,12.594-16.251,10.983-26.496l-3.164-20.111c-0.417-2.653,0.123-5.377,1.521-7.669L446.066,208.41z M168.408,487.627
			l-20.554-29.474c-1.704-2.444-4.618-3.752-7.576-3.396l-35.679,4.266L155.578,345.3c0.932,0.685,1.768,1.506,2.457,2.455
			l11.968,16.455c1.137,1.563,2.415,2.98,3.808,4.242l-26.833,59.857c-1.822,4.067-0.004,8.84,4.062,10.663
			c1.072,0.481,2.193,0.708,3.295,0.708c3.082,0,6.026-1.776,7.367-4.77l26.738-59.644c2.631,0.361,5.34,0.355,8.059-0.073
			l20.11-3.164c1.204-0.189,2.421-0.172,3.606,0.024L168.408,487.627z M407.732,459.021l-35.68-4.264
			c-2.961-0.355-5.872,0.952-7.576,3.396l-20.554,29.474l-51.829-115.619c1.087-0.148,2.196-0.148,3.293,0.024l20.103,3.164
			c2.829,0.445,5.648,0.431,8.379,0.024l26.758,59.692c1.343,2.995,4.285,4.77,7.367,4.77c1.103,0,2.224-0.227,3.295-0.708
			c4.066-1.822,5.885-6.597,4.062-10.663l-26.935-60.085c1.299-1.206,2.5-2.541,3.571-4.013l11.966-16.451
			c0.754-1.037,1.678-1.926,2.716-2.645L407.732,459.021z M432.287,200.008l-10.617,17.411c-3.385,5.554-4.695,12.152-3.684,18.578
			l3.164,20.11c0.665,4.229-1.073,8.42-4.534,10.938l-16.456,11.969c-5.267,3.832-9.013,9.429-10.545,15.76l-4.792,19.8
			c-1.005,4.151-4.207,7.354-8.359,8.359l-19.8,4.791c-6.332,1.532-11.93,5.278-15.762,10.546l-11.966,16.451
			c-2.518,3.463-6.708,5.199-10.939,4.533l-20.104-3.164c-6.427-1.011-13.026,0.297-18.581,3.684l-17.407,10.615
			c-3.643,2.22-8.171,2.22-11.812,0l-17.411-10.616c-4.33-2.641-9.294-4.017-14.317-4.017c-1.42,0-2.847,0.11-4.262,0.333
			l-20.111,3.164c-4.23,0.666-8.42-1.073-10.938-4.534l-11.969-16.455c-3.832-5.267-9.429-9.013-15.76-10.545l-19.8-4.792
			c-4.151-1.005-7.354-4.207-8.359-8.359l-4.791-19.799c-1.532-6.332-5.277-11.931-10.546-15.763l-16.45-11.967
			c-3.462-2.518-5.199-6.71-4.533-10.939l3.164-20.104c1.011-6.427-0.297-13.025-3.684-18.58l-10.615-17.409
			c-2.221-3.643-2.221-8.17,0-11.812l10.617-17.411c3.386-5.554,4.695-12.152,3.684-18.578l-3.164-20.11
			c-0.665-4.229,1.073-8.42,4.534-10.938l16.456-11.969c5.267-3.832,9.013-9.429,10.545-15.76l4.792-19.8
			c1.005-4.151,4.207-7.354,8.359-8.359l19.8-4.791c6.332-1.532,11.93-5.278,15.761-10.546l11.966-16.451
			c2.518-3.462,6.708-5.201,10.939-4.534l20.104,3.164c6.428,1.013,13.027-0.297,18.581-3.684l17.407-10.615
			c3.643-2.22,8.171-2.22,11.812,0l17.411,10.616c5.554,3.388,12.154,4.697,18.579,3.685l20.111-3.164
			c4.228-0.663,8.42,1.073,10.938,4.534l11.969,16.455c3.832,5.267,9.429,9.013,15.76,10.545l19.8,4.792
			c4.151,1.005,7.354,4.207,8.359,8.359l4.791,19.799c1.532,6.332,5.277,11.931,10.546,15.763l16.451,11.966
			c3.462,2.518,5.199,6.71,4.533,10.939l-3.164,20.104c-1.011,6.427,0.297,13.025,3.684,18.58l10.615,17.409
			C434.509,191.838,434.509,196.365,432.287,200.008z"/>
            </g>
        </g>
        <g>
            <g>
                <path d="M350.416,168.997c-1.778-5.474-6.433-9.296-12.149-9.974l-48.551-5.757l-20.478-44.395
			c-2.411-5.226-7.484-8.473-13.24-8.473c-5.755,0-10.829,3.247-13.24,8.473l-20.478,44.396l-48.551,5.757
			c-5.716,0.678-10.372,4.5-12.149,9.974c-1.778,5.471-0.258,11.3,3.966,15.207l35.895,33.195l-9.528,47.954
			c-1.121,5.646,1.075,11.254,5.732,14.636c2.569,1.866,5.55,2.811,8.55,2.811c2.439,0,4.889-0.624,7.14-1.884l42.662-23.879
			l42.662,23.879c5.023,2.812,11.034,2.457,15.691-0.926c4.657-3.383,6.853-8.992,5.731-14.637l-9.528-47.953l35.895-33.195
			C350.674,180.299,352.194,174.471,350.416,168.997z M296.282,208.62c-2.06,1.905-2.982,4.744-2.436,7.496l9.75,49.071
			l-43.658-24.437c-1.224-0.685-2.582-1.028-3.941-1.028c-1.359,0-2.716,0.342-3.941,1.028l-43.658,24.437l9.75-49.071
			c0.548-2.753-0.375-5.591-2.436-7.496L178.98,174.65l49.686-5.891c2.786-0.33,5.201-2.085,6.377-4.632l20.955-45.431
			l20.955,45.431c1.176,2.547,3.59,4.302,6.377,4.632l49.684,5.891L296.282,208.62z"/>
            </g>
        </g>
    </symbol>

    <symbol id="info5" viewBox="0 -16 512.00219 512">
        <path d="m146 260.019531c0 5.519531-4.476562 10-10 10s-10-4.480469-10-10c0-5.523437 4.476562-10 10-10s10 4.476563 10 10zm0 0"/>
        <path d="m34.378906 292.960938c13.730469 15.164062 13.160156 27.265624 12.21875 47.316406-.285156 6.011718-.605468 12.824218-.484375 20.195312.585938 35.710938 26.765625 41.652344 47.800781 46.421875 17.894532 4.0625 34.800782 7.898438 44.941407 25.578125 17.355469 30.796875 32.105469 55.382813 66.269531 44.4375 11.601562-3.722656 19.898438-7.242187 26.566406-10.070312 10.019532-4.25 15.539063-6.59375 24.308594-6.59375 8.765625 0 14.289062 2.34375 24.308594 6.59375 6.671875 2.828125 14.96875 6.351562 26.570312 10.070312 16.222656 5.199219 29.382813 2.367188 40.550782-7.507812 10.242187-9.058594 18.234374-23.859375 25.714843-36.929688 10.144531-17.679687 27.046875-21.515625 44.941407-25.578125 21.035156-4.769531 47.214843-10.710937 47.792968-46.421875.121094-7.375-.195312-14.191406-.476562-20.203125-.941406-20.046875-1.507813-32.148437 12.222656-47.308593 20.839844-23.011719 34.402344-37.359376 34.378906-53.234376.027344-16.941406-16.660156-33.652343-34.378906-53.210937-13.730469-15.167969-13.164062-27.269531-12.222656-47.320313.28125-6.011718.601562-12.828124.476562-20.199218-.578125-35.707032-26.753906-41.648438-47.789062-46.421875-17.894532-4.0625-34.800782-7.898438-44.945313-25.582031-7.515625-13.121094-15.574219-27.957032-25.722656-36.933594-11.449219-10.121094-24.710937-12.570313-40.542969-7.496094-11.609375 3.722656-19.917968 7.242188-26.589844 10.074219-10.015624 4.246093-15.53125 6.585937-24.28125 6.589843-8.769531-.003906-14.28125-2.34375-24.296874-6.589843-6.671876-2.832031-14.976563-6.351563-26.585938-10.070313-15.832031-5.082031-29.09375-2.628906-40.542969 7.492188-10.242187 9.054687-18.242187 23.867187-25.726562 36.933594-10.136719 17.671874-27.703125 21.515624-46.300781 25.582031-21.765626 4.761719-48.855469 10.6875-49.441407 46.421875-.144531 8.960937.578125 17.011718 1.222657 24.113281 1.652343 18.378906 2.652343 29.472656-9.957032 43.40625-20.519531 22.652344-34.4335935 37.289063-34.378906 53.1875-.0585938 16.828125 16.152344 33.136719 34.378906 53.257813zm14.824219-93.023438c18.488281-20.425781 16.816406-38.980469 15.050781-58.621094-.625-6.929687-1.273437-14.097656-1.144531-21.996094.3125-19.101562 10.5625-22.144531 33.714844-27.207031 19.972656-4.371093 44.828125-9.804687 59.378906-35.167969 14.703125-23.894531 21.304687-42.234374 42.816406-35.335937 10.742188 3.445313 18.253907 6.628906 24.882813 9.441406 10.765625 4.5625 19.265625 8.171875 32.101562 8.175781 12.820313-.003906 21.324219-3.613281 32.089844-8.175781 6.628906-2.8125 14.140625-5.996093 24.890625-9.441406 21.464844-6.878906 27.886719 11.085937 42.8125 35.335937 14.507813 25.289063 38.550781 30.746094 57.867187 35.132813 22.6875 5.148437 31.902344 8.007813 32.21875 27.246094.109376 6.742187-.179687 12.941406-.460937 18.9375-.972656 20.769531-1.894531 40.390625 17.375 61.679687 14.753906 16.285156 29.222656 31.636719 29.203125 39.761719v.050781c.023438 8.777344-17.257812 26.597656-29.203125 39.78125-19.269531 21.277344-18.347656 40.898438-17.375 61.667969.28125 5.996094.570313 12.199219.460937 18.941406-.316406 19.242188-9.535156 22.097657-32.222656 27.246094-19.316406 4.382813-43.355468 9.839844-57.863281 35.132813l-1.351563 2.351562c-16.914062 29.546875-23.859374 38.625-41.460937 32.992188-10.734375-3.445313-18.242187-6.628907-24.867187-9.4375-10.773438-4.570313-19.285157-8.183594-32.117188-8.183594-12.835938 0-21.347656 3.609375-32.121094 8.183594-6.621094 2.808593-14.128906 5.992187-24.859375 9.433593-21.421875 6.863281-27.808593-10.953125-42.8125-35.34375-14.511719-25.289062-38.550781-30.746093-57.867187-35.128906-22.691406-5.148437-31.914063-8.003906-32.230469-27.246094-.109375-6.738281.183594-12.933593.464844-18.925781.980469-20.777344 1.902343-40.402344-17.371094-61.683594-13.464844-14.863281-29.230469-31.398437-29.203125-39.832031-.03125-8.757813 17.285156-26.605469 29.203125-39.765625zm0 0"/>
        <path d="m216 170.019531c-16.542969 0-30 13.457031-30 30 0 16.539063 13.457031 30 30 30s30-13.460937 30-30c0-16.542969-13.457031-30-30-30zm0 40c-5.515625 0-10-4.488281-10-10 0-5.515625 4.484375-10 10-10s10 4.484375 10 10c0 5.511719-4.484375 10-10 10zm0 0"/>
        <path d="m266 280.019531c0 16.539063 13.457031 30 30 30s30-13.460937 30-30c0-16.542969-13.457031-30-30-30s-30 13.457031-30 30zm40 0c0 5.511719-4.484375 10-10 10s-10-4.488281-10-10c0-5.515625 4.484375-10 10-10s10 4.484375 10 10zm0 0"/>
        <path d="m210.453125 308.339844c4.574219 3.046875 10.792969 1.839844 13.867187-2.773438l80-120c3.0625-4.597656 1.820313-10.804687-2.773437-13.867187-4.597656-3.066407-10.804687-1.824219-13.867187 2.773437l-80 120c-3.0625 4.59375-1.820313 10.800782 2.773437 13.867188zm0 0"/>
        <path d="m256 410.019531c93.738281 0 170-76.261719 170-170s-76.261719-170-170-170-170 76.261719-170 170 76.261719 170 170 170zm0-320c82.710938 0 150 67.289063 150 150 0 82.707031-67.289062 150-150 150s-150-67.292969-150-150c0-82.710937 67.289062-150 150-150zm0 0"/>
        <path d="m237.660156 131.550781c5.445313-.917969 9.117188-6.078125 8.199219-11.523437-.914063-5.445313-6.070313-9.113282-11.519531-8.199219-54.550782 9.183594-97.367188 52.007813-106.539063 106.5625-1.023437 6.078125 3.65625 11.660156 9.871094 11.660156 4.792969 0 9.027344-3.457031 9.851563-8.34375 7.757812-46.15625 43.984374-82.386719 90.136718-90.15625zm0 0"/>
    </symbol>

    <symbol id="info6" viewBox="0 0 512 512">
        <g>
            <g>
                <path d="M462,74H50C22.43,74,0,96.43,0,124v264c0,27.57,22.43,50,50,50h155c5.523,0,10-4.477,10-10s-4.477-10-10-10H50
			c-16.542,0-30-13.458-30-30V266h217.339c1.603,8.116,6.434,15.268,13.599,19.811c2.333,1.479,4.815,2.603,7.373,3.395
			l-17.606,30.278c-2.037,3.502-1.759,7.887,0.703,11.104c2.462,3.217,6.622,4.63,10.534,3.581l23.946-6.427l6.407,23.951
			c1.045,3.908,4.342,6.801,8.353,7.33c0.439,0.058,0.876,0.086,1.311,0.086c3.538,0,6.856-1.88,8.657-5l45.592-78.968
			l57.119,101.554c1.786,3.175,5.134,5.098,8.713,5.098c0.416,0,0.834-0.026,1.254-0.079c4.034-0.509,7.358-3.409,8.409-7.337
			l6.408-23.952l23.946,6.427c3.894,1.044,8.035-0.35,10.502-3.54c2.467-3.189,2.777-7.547,0.788-11.054l-29.407-51.821
			c0.929,0.086,1.86,0.139,2.791,0.139c5.684,0,11.339-1.602,16.331-4.766c7.165-4.542,11.997-11.695,13.599-19.811H492v122
			c0,16.542-13.458,30-30,30H362v-54c0-5.523-4.477-10-10-10s-10,4.477-10,10v54h-51.965c-5.523,0-10,4.477-10,10s4.477,10,10,10
			H462c27.57,0,50-22.43,50-50V124C512,96.43,489.57,74,462,74z M261.647,268.918c-3.111-1.972-4.895-5.215-4.895-8.899v-70.063
			h-0.001c0-3.684,1.784-6.927,4.895-8.899c3.111-1.973,6.806-2.202,10.137-0.63l49.064,23.149
			c-1.211,3.285-1.873,6.833-1.873,10.533V235.5c0,3.818,0.71,7.471,1.996,10.842l-49.186,23.206
			C268.453,271.118,264.759,270.89,261.647,268.918z M295.374,323.189l-2.751-10.284c-0.686-2.563-2.362-4.75-4.66-6.076
			c-2.298-1.328-5.029-1.686-7.592-0.998l-10.18,2.732l12.94-22.254l46.091-21.746L295.374,323.189z M280.318,162.338
			c-9.514-4.488-20.496-3.805-29.379,1.826s-14.187,15.273-14.187,25.791V246H20V124c0-16.542,13.458-30,30-30h292v85.667
			c0,1.654,0.408,3.209,1.119,4.583c-3.206,0.686-6.224,1.878-8.973,3.485L280.318,162.338z M354.644,246.036h-5.134
			c-5.81,0-10.537-4.727-10.537-10.536v-21.392c0-5.81,4.727-10.536,10.537-10.536h5.134c5.81,0,10.537,4.726,10.537,10.536V235.5
			C365.181,241.31,360.454,246.036,354.644,246.036z M434.155,331.339l-10.526-2.825c-2.563-0.688-5.294-0.328-7.592,0.998
			c-2.298,1.327-3.975,3.513-4.66,6.076l-2.651,9.908l-45.403-80.724c2.202-0.654,4.3-1.55,6.265-2.658l34.528,16.291
			L434.155,331.339z M442.354,268.919c-3.112,1.973-6.806,2.202-10.137,0.63l-49.056-23.145c1.3-3.389,2.02-7.063,2.02-10.904
			v-21.392c0-3.723-0.672-7.292-1.897-10.594l48.933-23.087c3.332-1.571,7.025-1.342,10.137,0.63
			c3.111,1.972,4.895,5.216,4.895,8.899v70.064h0C447.249,263.703,445.465,266.947,442.354,268.919z M492.001,246h-24.752v-56.044
			c0-10.518-5.304-20.16-14.187-25.791c-8.884-5.631-19.867-6.313-29.379-1.826l-53.743,25.356c-2.77-1.61-5.811-2.802-9.042-3.477
			c0.7-1.366,1.103-2.91,1.103-4.551V94h100c16.542,0,30,13.458,30,30V246z"/>
            </g>
        </g>
        <g>
            <g>
                <path d="M253.82,420.93c-1.86-1.86-4.44-2.93-7.07-2.93s-5.21,1.07-7.07,2.93s-2.93,4.44-2.93,7.07s1.07,5.21,2.93,7.07
			c1.86,1.86,4.44,2.93,7.07,2.93s5.21-1.07,7.07-2.93c1.87-1.86,2.93-4.44,2.93-7.07S255.69,422.79,253.82,420.93z"/>
            </g>
        </g>
        <g>
            <g>
                <path d="M211.5,128H64c-5.523,0-10,4.477-10,10s4.477,10,10,10h147.5c5.523,0,10-4.477,10-10S217.023,128,211.5,128z"/>
            </g>
        </g>
        <g>
            <g>
                <path d="M211.5,354H64c-5.523,0-10,4.477-10,10s4.477,10,10,10h147.5c5.523,0,10-4.477,10-10S217.023,354,211.5,354z"/>
            </g>
        </g>
        <g>
            <g>
                <path d="M126,182H64c-5.523,0-10,4.477-10,10s4.477,10,10,10h62c5.523,0,10-4.477,10-10S131.523,182,126,182z"/>
            </g>
        </g>
        <g>
            <g>
                <path d="M171.76,184.93c-1.86-1.86-4.44-2.93-7.07-2.93c-2.64,0-5.21,1.07-7.07,2.93s-2.93,4.44-2.93,7.07s1.07,5.21,2.93,7.07
			s4.43,2.93,7.07,2.93c2.63,0,5.21-1.07,7.07-2.93s2.93-4.44,2.93-7.07S173.62,186.79,171.76,184.93z"/>
            </g>
        </g>

    </symbol>

    <symbol id="delivery1" viewBox="0 0 473.806 473.806">
        <g>
            <g>
                <path d="M374.456,293.506c-9.7-10.1-21.4-15.5-33.8-15.5c-12.3,0-24.1,5.3-34.2,15.4l-31.6,31.5c-2.6-1.4-5.2-2.7-7.7-4
			c-3.6-1.8-7-3.5-9.9-5.3c-29.6-18.8-56.5-43.3-82.3-75c-12.5-15.8-20.9-29.1-27-42.6c8.2-7.5,15.8-15.3,23.2-22.8
			c2.8-2.8,5.6-5.7,8.4-8.5c21-21,21-48.2,0-69.2l-27.3-27.3c-3.1-3.1-6.3-6.3-9.3-9.5c-6-6.2-12.3-12.6-18.8-18.6
			c-9.7-9.6-21.3-14.7-33.5-14.7s-24,5.1-34,14.7c-0.1,0.1-0.1,0.1-0.2,0.2l-34,34.3c-12.8,12.8-20.1,28.4-21.7,46.5
			c-2.4,29.2,6.2,56.4,12.8,74.2c16.2,43.7,40.4,84.2,76.5,127.6c43.8,52.3,96.5,93.6,156.7,122.7c23,10.9,53.7,23.8,88,26
			c2.1,0.1,4.3,0.2,6.3,0.2c23.1,0,42.5-8.3,57.7-24.8c0.1-0.2,0.3-0.3,0.4-0.5c5.2-6.3,11.2-12,17.5-18.1c4.3-4.1,8.7-8.4,13-12.9
			c9.9-10.3,15.1-22.3,15.1-34.6c0-12.4-5.3-24.3-15.4-34.3L374.456,293.506z M410.256,398.806
			C410.156,398.806,410.156,398.906,410.256,398.806c-3.9,4.2-7.9,8-12.2,12.2c-6.5,6.2-13.1,12.7-19.3,20
			c-10.1,10.8-22,15.9-37.6,15.9c-1.5,0-3.1,0-4.6-0.1c-29.7-1.9-57.3-13.5-78-23.4c-56.6-27.4-106.3-66.3-147.6-115.6
			c-34.1-41.1-56.9-79.1-72-119.9c-9.3-24.9-12.7-44.3-11.2-62.6c1-11.7,5.5-21.4,13.8-29.7l34.1-34.1c4.9-4.6,10.1-7.1,15.2-7.1
			c6.3,0,11.4,3.8,14.6,7c0.1,0.1,0.2,0.2,0.3,0.3c6.1,5.7,11.9,11.6,18,17.9c3.1,3.2,6.3,6.4,9.5,9.7l27.3,27.3
			c10.6,10.6,10.6,20.4,0,31c-2.9,2.9-5.7,5.8-8.6,8.6c-8.4,8.6-16.4,16.6-25.1,24.4c-0.2,0.2-0.4,0.3-0.5,0.5
			c-8.6,8.6-7,17-5.2,22.7c0.1,0.3,0.2,0.6,0.3,0.9c7.1,17.2,17.1,33.4,32.3,52.7l0.1,0.1c27.6,34,56.7,60.5,88.8,80.8
			c4.1,2.6,8.3,4.7,12.3,6.7c3.6,1.8,7,3.5,9.9,5.3c0.4,0.2,0.8,0.5,1.2,0.7c3.4,1.7,6.6,2.5,9.9,2.5c8.3,0,13.5-5.2,15.2-6.9
			l34.2-34.2c3.4-3.4,8.8-7.5,15.1-7.5c6.2,0,11.3,3.9,14.4,7.3c0.1,0.1,0.1,0.1,0.2,0.2l55.1,55.1
			C420.456,377.706,420.456,388.206,410.256,398.806z"/>
                <path d="M256.056,112.706c26.2,4.4,50,16.8,69,35.8s31.3,42.8,35.8,69c1.1,6.6,6.8,11.2,13.3,11.2c0.8,0,1.5-0.1,2.3-0.2
			c7.4-1.2,12.3-8.2,11.1-15.6c-5.4-31.7-20.4-60.6-43.3-83.5s-51.8-37.9-83.5-43.3c-7.4-1.2-14.3,3.7-15.6,11
			S248.656,111.506,256.056,112.706z"/>
                <path d="M473.256,209.006c-8.9-52.2-33.5-99.7-71.3-137.5s-85.3-62.4-137.5-71.3c-7.3-1.3-14.2,3.7-15.5,11
			c-1.2,7.4,3.7,14.3,11.1,15.6c46.6,7.9,89.1,30,122.9,63.7c33.8,33.8,55.8,76.3,63.7,122.9c1.1,6.6,6.8,11.2,13.3,11.2
			c0.8,0,1.5-0.1,2.3-0.2C469.556,223.306,474.556,216.306,473.256,209.006z"/>
            </g>
        </g>
    </symbol>
    <symbol id="delivery2" viewBox="-68 0 512 512">
        <path d="m187.644531 0c-103.46875 0-187.644531 84.175781-187.644531 187.644531 0 47.53125 29.949219 114.6875 89.019531 199.605469 43.175781 62.074219 85.640625 110.109375 87.429688 112.125l11.195312 12.625 11.199219-12.625c1.785156-2.015625 44.25-50.050781 87.429688-112.125 59.066406-84.917969 89.019531-152.074219 89.019531-199.605469 0-103.46875-84.179688-187.644531-187.648438-187.644531zm74.21875 369.914062c-29.183593 41.984376-58.679687 78.117188-74.21875 96.550782-15.5-18.382813-44.886719-54.378906-74.050781-96.308594-54.730469-78.679688-83.660156-141.792969-83.660156-182.511719 0-86.960937 70.75-157.710937 157.710937-157.710937 86.964844 0 157.710938 70.75 157.710938 157.710937 0 40.675781-28.871094 103.703125-83.492188 182.269531zm0 0"/>
        <path d="m187.644531 69.351562c-61.066406 0-110.746093 49.679688-110.746093 110.746094s49.679687 110.75 110.746093 110.75c61.070313 0 110.75-49.683594 110.75-110.75s-49.679687-110.746094-110.75-110.746094zm0 191.5625c-44.558593 0-80.8125-36.253906-80.8125-80.816406 0-44.558594 36.253907-80.8125 80.8125-80.8125 44.5625 0 80.816407 36.253906 80.816407 80.8125 0 44.5625-36.253907 80.816406-80.816407 80.816406zm0 0"/>
    </symbol>

    <symbol id="delivery3" viewBox="0 -22 476.44406 476">
        <path d="m444.632812 57.085938c-19.15625 1.847656-33.480468 18.414062-32.542968 37.636718l1.4375 58.9375c-15.757813 1.566406-29.550782 11.257813-36.367188 25.550782l-21.539062 45.222656c-3.347656 7.011718-8.234375 13.183594-14.289063 18.050781l-4.476562 3.589844c-22.765625 18.167969-35.453125 46.140625-34.117188 75.234375l-8.800781-4.1875c-3.988281-1.902344-8.765625-.207032-10.664062 3.78125l-23.613282 49.582031c-1.898437 3.992187-.207031 8.765625 3.78125 10.664063l108.820313 51.824218c1.914062.914063 4.113281 1.03125 6.113281.320313 2-.710938 3.636719-2.183594 4.546875-4.101563l23.617187-49.589844c1.898438-3.988281.207032-8.761718-3.78125-10.660156l-4.644531-2.210937-1.160156-15.511719c-.464844-6.058594 1.445313-12.0625 5.324219-16.742188l56.351562-68.191406c.113282-.136718.222656-.277344.328125-.421875 11.617188-16.21875 17.742188-35.726562 17.480469-55.671875-.007812-.378906-.042969-.757812-.101562-1.132812l-23.023438-145.261719c-.664062-4.179687-4.46875-7.121094-8.679688-6.710937zm-72.714843 358-94.371094-44.945313 16.734375-35.140625 94.371094 44.945312zm74.203125-158.78125-56.175782 67.980468c-6.519531 7.859375-9.726562 17.945313-8.949218 28.125l.480468 6.394532-61.855468-29.457032c-4.394532-26.789062 6.023437-53.863281 27.242187-70.792968l4.476563-3.589844c7.9375-6.378906 14.339844-14.464844 18.730468-23.652344l21.535157-45.222656c5.632812-11.78125 18.386719-18.414063 31.269531-16.257813l-31.480469 66.105469c-1.871093 3.984375-.175781 8.730469 3.800781 10.625 3.972657 1.890625 8.730469.21875 10.644532-3.746094l35.398437-74.332031c1.898438-3.992187.207031-8.765625-3.785156-10.664063-2.535156-1.203124-5.175781-2.167968-7.890625-2.886718l-1.480469-60.699219c0-.070313 0-.140625-.007812-.207031-.410157-7.875 3.832031-15.257813 10.835937-18.875l21.535156 135.832031c.09375 16.238281-4.914062 32.089844-14.324218 45.320313zm0 0"/>
        <path d="m17.816406 266.285156 56.351563 68.191406c3.878906 4.679688 5.789062 10.683594 5.324219 16.742188l-1.160157 15.511719-4.644531 2.210937c-3.988281 1.898438-5.679688 6.671875-3.78125 10.660156l23.617188 49.589844c.910156 1.917969 2.546874 3.390625 4.546874 4.101563 2 .710937 4.199219.59375 6.117188-.320313l108.816406-51.824218c3.988282-1.898438 5.679688-6.671876 3.78125-10.664063l-23.617187-49.585937c-1.898438-3.988282-6.671875-5.683594-10.660157-3.78125l-8.800781 4.1875c1.332031-29.09375-11.351562-57.066407-34.117187-75.234376l-4.476563-3.589843c-6.058593-4.867188-10.941406-11.035157-14.292969-18.046875l-21.539062-45.222656c-6.816406-14.292969-20.609375-23.984376-36.367188-25.550782l1.441407-58.9375c.9375-19.21875-13.386719-35.789062-32.542969-37.636718-4.210938-.410157-8.015625 2.53125-8.679688 6.710937l-23.023437 145.261719c-.0625.375-.09375.753906-.1015625 1.132812-.2617185 19.945313 5.8632815 39.453125 17.4804685 55.671875.105469.144531.214844.285157.328125.421875zm181.082032 103.859375-94.371094 44.941407-16.734375-35.140626 94.371093-44.945312zm-161.363282-294.996093c7.003906 3.617187 11.246094 11.003906 10.835938 18.875 0 .070312-.003906.140624-.007813.210937l-1.480469 60.699219c-2.714843.714844-5.359374 1.679687-7.894531 2.886718-3.988281 1.898438-5.683593 6.675782-3.78125 10.664063l35.398438 74.335937c1.914062 3.964844 6.671875 5.636719 10.644531 3.742188 3.972656-1.890625 5.671875-6.636719 3.800781-10.621094l-31.480469-66.109375c12.882813-2.160156 25.640626 4.472657 31.269532 16.257813l21.539062 45.222656c4.390625 9.1875 10.789063 17.273438 18.726563 23.652344l4.476562 3.589844c21.21875 16.929687 31.636719 44.003906 27.242188 70.792968l-61.855469 29.457032.480469-6.394532c.777343-10.179687-2.429688-20.265625-8.945313-28.125l-56.179687-67.980468c-9.40625-13.230469-14.417969-29.082032-14.320313-45.320313zm0 0"/>
        <path d="m333.628906 172.601562c3.316406-1.058593 5.574219-4.132812 5.59375-7.617187v-126.796875c-.019531-3.480469-2.277344-6.554688-5.59375-7.613281l-92.925781-29.964844c-1.601563-.515625-3.324219-.515625-4.925781 0l-92.953125 29.960937c-3.320313 1.058594-5.578125 4.132813-5.601563 7.617188v126.796875c.019532 3.484375 2.277344 6.554687 5.59375 7.617187l92.925782 29.960938c.796874.253906 1.632812.382812 2.46875.382812.84375 0 1.683593-.128906 2.484374-.382812zm-87.40625 11.363282v-110l77-24.800782v110zm-8-167.335938 66.839844 21.558594-66.839844 21.550781-66.839844-21.550781zm-85 32.539063 77 24.800781v110l-77-24.800781zm0 0"/>
    </symbol>

    <symbol id="search" viewBox="0 0 269.99 267.99">
        <g>
            <path
                  d="M268.34,250.57l-78.43-77.85a105,105,0,0,0,23.83-66.64C213.74,47.59,165.8,0,106.87,0S0,47.59,0,106.08,47.94,212.16,106.87,212.16A106.77,106.77,0,0,0,174,188.5l78.43,77.85a5.66,5.66,0,0,0,8,0l7.95-7.9A5.53,5.53,0,0,0,268.34,250.57ZM106.87,189.83c-46.53,0-84.37-37.57-84.37-83.75s37.85-83.75,84.37-83.75,84.37,37.57,84.37,83.75S153.4,189.83,106.87,189.83Z"/>
        </g>
    </symbol>

    <symbol id="basket" viewBox="0 0 307.02 272.99">
        <g>
            <path
                  d="M291.08,80.13H97l-.55.15v-.15s-2.77-23.35-4.36-33S66.09,25.32,13.45.75c-12.4-5.14-22.73,17.23,0,29L55,48.92s9.65,5.53,10.48,13,17.67,131,17.67,131,.66,17.16,16.46,17.16H258c13.23,0,15.83-13.69,15.83-13.69l31.37-92.24S314.51,80.13,291.08,80.13ZM122.81,222.55a25.22,25.22,0,1,0,25.5,25.22A25.36,25.36,0,0,0,122.81,222.55Zm103.24,0a25.22,25.22,0,1,0,25.5,25.22A25.36,25.36,0,0,0,226.05,222.55Z"/>
        </g>
    </symbol>

    <symbol id="delivery" viewBox="0 0 390.87 225.67">
        <g>
            <path
                  d="M317.59,48.35H267.83l8.85-38.52A8,8,0,0,0,275.1,3a8.17,8.17,0,0,0-6.37-3H73.28a8.1,8.1,0,0,0-8.14,8.06,8.1,8.1,0,0,0,8.14,8.06H258.51L247.07,66,221.5,177.31H178.32a40.81,40.81,0,0,0-79.8,0H73.27a8.06,8.06,0,1,0,0,16.12H98.52a40.81,40.81,0,0,0,79.8,0h99.36a40.81,40.81,0,0,0,79.8,0h13a8.1,8.1,0,0,0,8-6.58l12.36-66C390.88,80.89,358,48.35,317.59,48.35ZM138.43,209.54a24.18,24.18,0,1,1,24.43-24.18A24.34,24.34,0,0,1,138.43,209.54Zm179.16,0A24.18,24.18,0,1,1,342,185.36,24.34,24.34,0,0,1,317.59,209.54Zm46.17-32.24h-6.28a40.81,40.81,0,0,0-79.8,0H238.21L264.12,64.47h53.46c31.43,0,57,25.31,57.15,54.93Zm-323-129h65.15a8.06,8.06,0,1,0,0-16.12H40.71a8.06,8.06,0,1,0,0,16.12ZM24.42,96.7h81.43a8.06,8.06,0,1,0,0-16.12H24.42a8.06,8.06,0,1,0,0,16.12ZM114,137a8.1,8.1,0,0,0-8.14-8.06H8.14a8.06,8.06,0,1,0,0,16.12h97.72A8.1,8.1,0,0,0,114,137Z"/>
        </g>
    </symbol>

    <symbol id="user" viewBox="0 0 273 273">
        <g>
            <path
                  d="M233,176.48A135.89,135.89,0,0,0,181.15,144a78.92,78.92,0,1,0-89.29,0A136.72,136.72,0,0,0,0,273H21.33a115.17,115.17,0,0,1,230.34,0H273A135.61,135.61,0,0,0,233,176.48Zm-96.52-40a57.59,57.59,0,1,1,57.59-57.58A57.65,57.65,0,0,1,136.5,136.5Z"/>
        </g>
    </symbol>
</svg>
